<svg xmlns="http://www.w3.org/2000/svg" xmlns:xlink="http://www.w3.org/1999/xlink" viewBox="0 0 231.15 139.58"><defs><style>.cls-1{fill:url(#linear-gradient);}.cls-2{fill:url(#linear-gradient-2);}.cls-3{fill:url(#linear-gradient-3);}.cls-4{fill:url(#linear-gradient-4);}.cls-5{fill:#262c63;}.cls-6{fill:url(#linear-gradient-5);}.cls-7{fill:url(#linear-gradient-6);}.cls-8{fill:url(#linear-gradient-7);}.cls-9{fill:url(#linear-gradient-8);}.cls-10{fill:#dc2b27;}</style><linearGradient id="linear-gradient" x1="104.65" y1="43.09" x2="135.01" y2="43.09" gradientUnits="userSpaceOnUse"><stop offset="0.03" stop-color="#c39331"/><stop offset="0.03" stop-color="#c49532"/><stop offset="0.11" stop-color="#d6b34b"/><stop offset="0.2" stop-color="#e5cb5e"/><stop offset="0.29" stop-color="#efdc6b"/><stop offset="0.39" stop-color="#f5e673"/><stop offset="0.51" stop-color="#f7e976"/><stop offset="0.62" stop-color="#f4e573"/><stop offset="0.72" stop-color="#ebd969"/><stop offset="0.83" stop-color="#dcc559"/><stop offset="0.93" stop-color="#c7aa42"/><stop offset="1" stop-color="#b6932f"/></linearGradient><linearGradient id="linear-gradient-2" x1="96.15" y1="43.09" x2="126.5" y2="43.09" xlink:href="#linear-gradient"/><linearGradient id="linear-gradient-3" x1="91.3" y1="108.64" x2="106.03" y2="108.64" xlink:href="#linear-gradient"/><linearGradient id="linear-gradient-4" x1="98.5" y1="119.32" x2="116.4" y2="119.32" xlink:href="#linear-gradient"/><linearGradient id="linear-gradient-5" x1="174.27" y1="48.37" x2="187.17" y2="48.37" xlink:href="#linear-gradient"/><linearGradient id="linear-gradient-6" x1="44.26" y1="91.37" x2="57.36" y2="91.37" xlink:href="#linear-gradient"/><linearGradient id="linear-gradient-7" x1="48.72" y1="24.89" x2="182.05" y2="24.89" xlink:href="#linear-gradient"/><linearGradient id="linear-gradient-8" x1="49.1" y1="114.69" x2="182.44" y2="114.69" xlink:href="#linear-gradient"/></defs><title>logo-LVI-alt-clr</title><g id="Layer_2" data-name="Layer 2"><g id="Layer_7" data-name="Layer 7"><path class="cls-1" d="M104.65,50.6c.08,0,6.73-7.72,14.27-15a1.61,1.61,0,0,1,.63-.35,1.21,1.21,0,0,1,.78.24c.3.2.56.4.82.61.51.42,1,.85,1.48,1.28,1,.86,1.86,1.72,2.74,2.57,1.76,1.68,3.38,3.28,4.77,4.67,2.78,2.77,4.62,4.67,4.7,4.74a1,1,0,0,1-1.39,1.3c-.07-.07-1.83-2.05-4.47-4.93-1.32-1.44-2.85-3.11-4.52-4.87-.84-.87-1.71-1.77-2.61-2.66-.45-.45-.9-.89-1.37-1.3a9,9,0,0,0-.7-.58c-.12-.17-.23.06-.12-.29.21.31-.11.18-.17.33-7.68,6.73-14.8,14.28-14.84,14.2"/><path class="cls-2" d="M126.5,50.6c-.07,0-6.72-7.72-14.27-15a1.61,1.61,0,0,0-.63-.35,1.16,1.16,0,0,0-.77.24,9.39,9.39,0,0,0-.83.61c-.51.42-1,.85-1.47,1.28-1,.86-1.87,1.72-2.75,2.57-1.76,1.68-3.38,3.28-4.77,4.67-2.77,2.77-4.62,4.67-4.69,4.74a1,1,0,0,0,1.38,1.3c.07-.07,1.83-2.05,4.47-4.93,1.32-1.44,2.86-3.11,4.53-4.87.83-.87,1.7-1.77,2.6-2.66.45-.45.91-.89,1.37-1.3.24-.21.48-.41.71-.58s.22.06.11-.29c-.2.31.11.18.17.33,7.68,6.73,14.81,14.28,14.84,14.2"/><path class="cls-3" d="M105.76,113.3a.27.27,0,0,1,.24.16.32.32,0,0,1,0,.27.24.24,0,0,1-.24.13,22.78,22.78,0,0,0-2.77.06,14.67,14.67,0,0,1-5.44,3,1.68,1.68,0,0,1-1.12,0,.53.53,0,0,1-.3-.64,1.64,1.64,0,0,1,.7-.9,11.33,11.33,0,0,1,5.88-2.05,11,11,0,0,0,1.34-1.28,3.54,3.54,0,0,0,1.11-2.21,1.23,1.23,0,0,0-.31-.82,1.36,1.36,0,0,0-.69-.4,6.94,6.94,0,0,0-.86-.11,3.84,3.84,0,0,0-.84,0,10.71,10.71,0,0,0-2.39.47,31.85,31.85,0,0,1-3.28,1.58c-.41,1.11-.78,2-1.09,2.64a.2.2,0,0,1-.29.11.22.22,0,0,1-.15-.28q.27-.94.72-2.16c-.69.27-1.38.52-2.07.73a.26.26,0,0,1-.21,0,.22.22,0,0,1-.13-.12.39.39,0,0,1,0-.18.35.35,0,0,1,.06-.19.27.27,0,0,1,.15-.13c.5-.2,1.39-.61,2.67-1.21l.4-1c.08-.18.21-.55.41-1.13s.38-1,.54-1.42a8.92,8.92,0,0,1,.54-1.07.12.12,0,0,1,0-.12l.11-.15a.14.14,0,0,1,.2,0,.17.17,0,0,1,.08.19,8.5,8.5,0,0,1-.34,1.34q-.23.68-.63,1.68l-.52,1.28,0,.06a23.51,23.51,0,0,1,2.91-1.15l.88-.53c.35-.2.65-.38.88-.54l1-.67a7.16,7.16,0,0,0,1-.85,10.21,10.21,0,0,0,.8-.9,3.16,3.16,0,0,0,.56-1,2,2,0,0,0,0-1,1.38,1.38,0,0,0-.23-.59,1.71,1.71,0,0,0-.45-.44,4.34,4.34,0,0,0-.56-.33,3.51,3.51,0,0,0-.64-.24l-.64-.14a4.22,4.22,0,0,0-.61-.07,8.41,8.41,0,0,0-2.46.13,7.88,7.88,0,0,0-2.21.8,11.29,11.29,0,0,0-1.92,1.32,10.48,10.48,0,0,0-1.65,1.74,20.64,20.64,0,0,0-1.34,2A16.65,16.65,0,0,0,91.5,109s0,.06-.08.06a.13.13,0,0,1-.09,0,.09.09,0,0,1,0-.11,13.45,13.45,0,0,1,2.25-4.49,10.79,10.79,0,0,1,3.7-3.14,10,10,0,0,1,2.85-.95,8.25,8.25,0,0,1,3,0,5,5,0,0,1,1.9.81,2,2,0,0,1,.89,1.55,3.19,3.19,0,0,1-.27,1.53,4.75,4.75,0,0,1-1,1.41,12.39,12.39,0,0,1-1.25,1.13c-.41.32-.87.64-1.39,1a6.58,6.58,0,0,1,2.23.11,2.13,2.13,0,0,1,1.21.73,1.45,1.45,0,0,1,.29,1.09,4.41,4.41,0,0,1-.39,1.28,6.84,6.84,0,0,1-.75,1.23,7.55,7.55,0,0,1-.87,1,16.82,16.82,0,0,1,2,0m-4.48,1.07.43-.3a10.65,10.65,0,0,0-4.47,1.77c-.5.38-.57.55-.2.53l.17,0a5.4,5.4,0,0,0,1.32-.47,19,19,0,0,0,2.75-1.51"/><path class="cls-4" d="M116.15,114.69a.27.27,0,0,1,.21.14.21.21,0,0,1,0,.24.21.21,0,0,1-.21.11,17.28,17.28,0,0,0-8.58,2.13l-.41.93c-.66,1.44-1.15,2.53-1.49,3.26s-.83,1.67-1.47,2.83a23.89,23.89,0,0,1-1.92,3,6,6,0,0,1-.65.75,5.35,5.35,0,0,1-.76.64,2.23,2.23,0,0,1-.8.36.9.9,0,0,1-.74-.19,1.92,1.92,0,0,1-.62-.88q-1.14-3.09,4-8a20.88,20.88,0,0,1,4.47-3.28c.15-.34.3-.69.45-1.06,1-2.18,1.48-3.4,1.57-3.63q-1.22,1.42-2.25,1a1.09,1.09,0,0,1-.76-1,2.73,2.73,0,0,1,.36-1.5,2.31,2.31,0,0,1,.91-1,.18.18,0,0,1,.22,0,.14.14,0,0,1,0,.2,3.24,3.24,0,0,0-.76,1.4c-.25.83-.12,1.25.38,1.28a1.17,1.17,0,0,0,.42-.06,1.56,1.56,0,0,0,.5-.25,4.29,4.29,0,0,0,.43-.35,3.14,3.14,0,0,0,.4-.48c.16-.21.26-.37.33-.48s.18-.29.32-.54.22-.4.26-.46a.26.26,0,0,1,.37-.1c.15.07.21.17.16.32a54.63,54.63,0,0,1-2.4,6.19,15.72,15.72,0,0,1,8.11-1.57m-12.78,9.65c1-1.81,2.14-4,3.28-6.5a19.8,19.8,0,0,0-4.47,3.71,13.08,13.08,0,0,0-2.68,4.11,5.79,5.79,0,0,0-.23.89,2.91,2.91,0,0,0,0,1,1,1,0,0,0,.44.77.77.77,0,0,0,.89-.1,4.11,4.11,0,0,0,1.07-1.14c.38-.53.67-1,.88-1.3s.44-.73.69-1.19l.05-.11a.16.16,0,0,0,0-.07l0-.09"/><path class="cls-5" d="M125.19,109.56V114h-.4a3.19,3.19,0,0,0-.6-1.32,5.45,5.45,0,0,1-4.24,1.86,5.92,5.92,0,0,1-6.18-6.27c0-4,2.52-6.75,6.16-6.75a5.64,5.64,0,0,1,4.26,1.85,4.92,4.92,0,0,0,.49-1.62h.4l.11,4.77h-.4a6.82,6.82,0,0,0-1-2.76,4.34,4.34,0,0,0-3.58-1.77c-2.71,0-4.33,2.32-4.33,6.2,0,3.55,1.73,5.83,4.43,5.83a4.9,4.9,0,0,0,2.5-.74,5.28,5.28,0,0,0,2-3.67Z"/><path class="cls-5" d="M129.51,111.67c0,2,0,2.15,1.13,2.16h.22v.44h-4.07v-.44H127c.56,0,.84-.09,1-.35a1.06,1.06,0,0,0,.11-.63,3.84,3.84,0,0,0,0-.6v-8.1c0-1.49-.15-1.81-1.13-1.81h-.14v-.44a7.9,7.9,0,0,0,2.42-.39h.19Z"/><path class="cls-5" d="M139.85,110.48a4,4,0,0,1-4,4.09,4.45,4.45,0,0,1-2.66-.91,4.15,4.15,0,0,1-1.39-3.26,4,4,0,1,1,8.08.08m-6.54,0c0,2.54.76,3.67,2.49,3.67s2.51-1.13,2.51-3.61-.8-3.74-2.49-3.74-2.51,1.19-2.51,3.68"/><polygon class="cls-6" points="174.27 47.92 174.27 47.92 182.87 50.72 187.17 42.77 184.17 53.97 174.27 47.92"/><polygon class="cls-7" points="44.26 96.91 44.26 96.91 48.88 89.14 57.36 92.26 47.7 85.83 44.26 96.91"/><path class="cls-8" d="M49.67,49.76A68.88,68.88,0,0,1,181.1,48.55h1A69.79,69.79,0,0,0,48.72,49.77Z"/><path class="cls-9" d="M181.48,89.82A68.88,68.88,0,0,1,50.05,91H49.1a69.79,69.79,0,0,0,133.34-1.23Z"/><path class="cls-5" d="M60.18,48.53a2.8,2.8,0,0,1,0-2.25,2.91,2.91,0,0,1,1.56-1.63,2.79,2.79,0,0,1,2.41,0,2.9,2.9,0,0,1,1.69,1.67,3.1,3.1,0,0,1-1.65,3.92,2.9,2.9,0,0,1-2.41,0,2.78,2.78,0,0,1-1.65-1.69m4.24,1.08a1.69,1.69,0,0,0,1.24-1.12,1.75,1.75,0,0,0-.08-1.65,3.35,3.35,0,0,0-1.76-1.25,3.26,3.26,0,0,0-2.11-.38,1.81,1.81,0,0,0-1.28,1.16,1.62,1.62,0,0,0,.1,1.6,3.32,3.32,0,0,0,1.72,1.34,3.41,3.41,0,0,0,2.17.3"/><path class="cls-5" d="M63.11,40.28a5,5,0,0,1,.82-1.14,1.79,1.79,0,0,1,.86-.52,1.26,1.26,0,0,1,.93.14,1.34,1.34,0,0,1,.65.88,2.21,2.21,0,0,1-.14,1.4,2.84,2.84,0,0,1,1.5-.55,10,10,0,0,1,2.21.1l-.34.61c-.28-.08-3-.59-3.82.85l-.13.23,1.11.63,1.4.8-.43.76-1.4-.8-2.55-1.46-1.33-.76Zm2.72,1.28A2,2,0,0,0,66,41a1,1,0,0,0,0-.5.93.93,0,0,0-.21-.42,1.75,1.75,0,0,0-.48-.38,1.46,1.46,0,0,0-1-.22c-.32.06-.64.44-1,1l-.19.34,2.37,1.36Z"/><path class="cls-5" d="M71,34.6l.5-.69.78.57a1.18,1.18,0,0,1,.51.9,2.42,2.42,0,0,1,0,.73,4.17,4.17,0,0,1-.59,1.29,2.88,2.88,0,0,1-1.91,1.22,2.81,2.81,0,0,1-2.19-.55,3.26,3.26,0,0,1-1.31-1.94,2.69,2.69,0,0,1,.51-2.32,2.44,2.44,0,0,1,1.82-1.08h0l0,.28a2.12,2.12,0,0,0-.44,0,1.92,1.92,0,0,0-1.23.8,2,2,0,0,0-.36,1.54,3.06,3.06,0,0,0,1.4,1.78,3.24,3.24,0,0,0,2.15.81,2,2,0,0,0,1.73-1.59,1,1,0,0,0-.08-.67,1.31,1.31,0,0,0-.46-.49Z"/><path class="cls-5" d="M74.72,30.79,73.2,32.46l1.07,2.14-.22.24-2.79-6,.13-.13,6.25,2.17-.65.71-1.13-.41Zm-.2-.08-2.61-.93,1.18,2.5Z"/><polygon class="cls-5" points="78.33 22.17 79.06 23.02 82.3 26.77 82.17 26.88 75.26 25.45 77.95 28.57 78.81 29.57 78.67 29.7 77.8 28.7 75.74 26.31 74.79 25.21 75.49 24.61 81.15 25.83 78.83 23.14 78.13 22.34 78.33 22.17"/><polygon class="cls-5" points="80.91 20.26 81.8 21.48 83.56 23.9 84.49 25.18 83.77 25.7 82.84 24.42 81.08 22 80.2 20.78 80.91 20.26"/><path class="cls-5" d="M88.11,21.05a1.61,1.61,0,0,1,.08,1.32,1.93,1.93,0,0,1-1,1,2.49,2.49,0,0,1-2,0l0-.24a2,2,0,0,0,1.74.11,1.25,1.25,0,0,0,.71-.74,1,1,0,0,0,0-.85,1,1,0,0,0-.59-.53A3.6,3.6,0,0,0,85.86,21a9.1,9.1,0,0,1-1.2,0,1.64,1.64,0,0,1-.75-.29,1.55,1.55,0,0,1-.51-.6A1.36,1.36,0,0,1,83.34,19a1.58,1.58,0,0,1,.81-.86,1.93,1.93,0,0,1,.69-.19,1.75,1.75,0,0,1,.82.15l-.08.23-.26-.1a1.32,1.32,0,0,0-1,.08.92.92,0,0,0-.57.58A.89.89,0,0,0,84.34,20a4.49,4.49,0,0,0,1.26.1,9.62,9.62,0,0,1,1.22,0,1.45,1.45,0,0,1,.75.27,1.61,1.61,0,0,1,.54.66"/><path class="cls-5" d="M91.86,18.26l-2,1L90,21.63l-.29.14-.4-6.58.16-.07,5,4.31-.87.42-.91-.8Zm-.16-.15-2.09-1.82L89.79,19Z"/><polygon class="cls-5" points="97.11 12.12 95.67 12.69 94.73 13.06 96.31 17.03 96.91 18.52 96.08 18.85 95.49 17.36 93.91 13.39 93.07 13.72 91.55 14.33 91.48 14.14 97.03 11.93 97.11 12.12"/><polygon class="cls-5" points="99.78 11.19 100.2 12.64 101.02 15.51 101.46 17.03 100.61 17.28 100.17 15.76 99.34 12.88 98.93 11.43 99.78 11.19"/><path class="cls-5" d="M103,11.18a2.82,2.82,0,0,1,1.9-1.19,2.86,2.86,0,0,1,2.22.41,2.83,2.83,0,0,1,1.33,2,2.91,2.91,0,0,1-.47,2.33A2.76,2.76,0,0,1,106,16a2.8,2.8,0,0,1-2.23-.44,2.93,2.93,0,0,1-1.3-2,2.77,2.77,0,0,1,.5-2.31m1.44,4.14a1.66,1.66,0,0,0,1.61.42,1.72,1.72,0,0,0,1.33-1,3.32,3.32,0,0,0,.08-2.16,3.35,3.35,0,0,0-.85-2,1.77,1.77,0,0,0-1.67-.42,1.63,1.63,0,0,0-1.28,1,3.35,3.35,0,0,0-.17,2.17,3.35,3.35,0,0,0,1,2"/><polygon class="cls-5" points="114.94 8.91 115 10.04 115.27 14.99 115.11 15 110.5 9.64 110.73 13.76 110.8 15.08 110.6 15.09 110.53 13.77 110.36 10.62 110.28 9.17 111.2 9.12 114.94 13.54 114.74 9.99 114.69 8.93 114.94 8.91"/><path class="cls-5" d="M123.28,15.63l-.86-.08-.6-1-.1.08-.09.08a2.25,2.25,0,0,1-1.57.59,1.52,1.52,0,0,1-.54-.16,1.45,1.45,0,0,1-.5-.38,1.66,1.66,0,0,1-.34-.54,1.3,1.3,0,0,1-.07-.65,1.45,1.45,0,0,1,.37-.89,5,5,0,0,1,1.18-.82,2.51,2.51,0,0,1-.49-1.33,1.11,1.11,0,0,1,.42-.76,1.19,1.19,0,0,1,.9-.27,1.32,1.32,0,0,1,.82.34.8.8,0,0,1,.27.72c0,.43-.35.84-1.22,1.18l1.36,2.16.93-.83.29,0h0l-1.12,1Zm-1.57-1.27-1.44-2.3a1.93,1.93,0,0,0-.7.58,1.25,1.25,0,0,0-.31.69,1.45,1.45,0,0,0,.26,1,1.31,1.31,0,0,0,1,.54,1.58,1.58,0,0,0,1.12-.44Zm-1.47-4a2.59,2.59,0,0,0,.51,1.2,1.26,1.26,0,0,0,.87-1,1.1,1.1,0,0,0,0-.32.57.57,0,0,0-.12-.26.61.61,0,0,0-.21-.18.83.83,0,0,0-.28-.08.62.62,0,0,0-.52.16.69.69,0,0,0-.23.49"/><path class="cls-5" d="M127.45,10l1.64.41a4.43,4.43,0,0,1,1.95.9,2.65,2.65,0,0,1,.83,1.34,3.46,3.46,0,0,1,0,1.66,3.56,3.56,0,0,1-.49,1.12,2.67,2.67,0,0,1-.75.75,2.43,2.43,0,0,1-.93.34,3.12,3.12,0,0,1-.91,0c-.27,0-.66-.11-1.15-.23l-1.62-.4Zm.36,6.14a3.3,3.3,0,0,0,1.32.1,1.72,1.72,0,0,0,1-.62,3.32,3.32,0,0,0,.73-1.48,4.19,4.19,0,0,0,.12-1.38,2.4,2.4,0,0,0-.32-1.07A2,2,0,0,0,130,11a4.17,4.17,0,0,0-1.1-.41c-.22-.05-.47-.11-.68-.14l-1.34,5.48Z"/><path class="cls-5" d="M134.38,18.08l1.75.69-.08.19-3.32-1.3.57-1.45.15-.4.13-.33.82-2.08L135,12l3.33,1.31-.07.19-1.75-.69-.76-.3-.48,1.22-.06.17-.4,1,.57.23,1.07.41-.07.2-1.05-.41-.6-.23-.27.69,0,.13-.08.21-.16.39-.49,1.26Zm2.71-6-.32-.13.74-.44.4.16Z"/><path class="cls-5" d="M141.42,20.41a2.58,2.58,0,0,1-2.19,0,2.77,2.77,0,0,1-1.4-3.88,3.76,3.76,0,0,1,1-1.33,2.49,2.49,0,0,1,1.44-.59,3,3,0,0,1,1.49.29,2.76,2.76,0,0,1,1,.75,2.56,2.56,0,0,1,.47.86v0l-.22.07a1.91,1.91,0,0,0-.15-.46,2.19,2.19,0,0,0-1-1,1.79,1.79,0,0,0-1.67.05,3.59,3.59,0,0,0-1.39,1.71,3.08,3.08,0,0,0-.32,2.09,1.89,1.89,0,0,0,1.06,1.26,2.21,2.21,0,0,0,1,.21,1.61,1.61,0,0,0,.86-.25Z"/><path class="cls-5" d="M145.23,17.54a2.83,2.83,0,0,1,2.2.41,2.9,2.9,0,0,1,1.36,1.81,2.77,2.77,0,0,1-.39,2.37,2.9,2.9,0,0,1-1.92,1.41,3.11,3.11,0,0,1-3.61-2.26,3,3,0,0,1,.42-2.38,2.81,2.81,0,0,1,1.94-1.36m-1.75,4a1.69,1.69,0,0,0,.91,1.4,1.74,1.74,0,0,0,1.63.19,3.3,3.3,0,0,0,1.52-1.54,3.23,3.23,0,0,0,.71-2,1.76,1.76,0,0,0-.93-1.44,1.61,1.61,0,0,0-1.6-.16,3.33,3.33,0,0,0-1.59,1.48,3.38,3.38,0,0,0-.65,2.1"/><path class="cls-5" d="M152.91,21.8a5.2,5.2,0,0,1,1,1,2,2,0,0,1,.37.94,1.24,1.24,0,0,1-.3.88,1.29,1.29,0,0,1-1,.5,2.25,2.25,0,0,1-1.36-.37,2.79,2.79,0,0,1,.29,1.57,9.68,9.68,0,0,1-.46,2.17l-.54-.45c.12-.26,1.08-2.85-.21-3.9l-.21-.17-.8,1-1,1.24-.67-.55,1-1.24,1.86-2.28,1-1.18Zm-1.7,2.47a2,2,0,0,0,.56.28.9.9,0,0,0,.5.06.88.88,0,0,0,.45-.14,1.54,1.54,0,0,0,.45-.41,1.47,1.47,0,0,0,.39-1c0-.33-.33-.7-.88-1.15l-.3-.24-1.73,2.11Z"/><path class="cls-5" d="M156.55,30.37,155,28.73l-2.2.93-.23-.23L158.7,27l.12.13-2.57,6.1-.67-.7.49-1.1Zm.09-.2,1.1-2.54-2.57,1Z"/><polygon class="cls-5" points="164 33.5 163.02 32.3 162.38 31.52 159.08 34.24 157.84 35.26 157.28 34.57 158.51 33.55 161.82 30.84 161.25 30.15 160.21 28.88 160.37 28.76 164.16 33.37 164 33.5"/><polygon class="cls-5" points="165.69 35.76 164.44 36.6 161.95 38.26 160.64 39.14 160.14 38.4 161.46 37.52 163.94 35.86 165.2 35.02 165.69 35.76"/><path class="cls-5" d="M166.67,38.8a2.77,2.77,0,0,1,1.71,1.45,2.88,2.88,0,0,1,.29,2.24,2.76,2.76,0,0,1-1.52,1.87,2.88,2.88,0,0,1-2.36.27,3.11,3.11,0,0,1-2-3.75A3,3,0,0,1,164.32,39a2.8,2.8,0,0,1,2.35-.22m-3.51,2.63a1.68,1.68,0,0,0,.09,1.66,1.71,1.71,0,0,0,1.33,1,3.26,3.26,0,0,0,2.09-.58,3.3,3.3,0,0,0,1.62-1.41,1.78,1.78,0,0,0-.1-1.71,1.62,1.62,0,0,0-1.31-.94,3.41,3.41,0,0,0-2.12.51,3.31,3.31,0,0,0-1.6,1.5"/><polygon class="cls-5" points="172.48 49.51 171.42 49.92 166.8 51.69 166.74 51.54 170.43 45.51 166.58 46.99 165.34 47.46 165.27 47.28 166.51 46.81 169.45 45.68 170.81 45.16 171.14 46.02 168.07 50.93 171.39 49.66 172.39 49.27 172.48 49.51"/><polygon class="cls-10" points="0 77.38 0 61.1 0.92 61.1 0.92 76.46 7.13 76.46 7.13 77.38 0 77.38"/><path class="cls-10" d="M18.53,61.1l5.9,16.28h-1l-2.6-7.16H15.23l-2.65,7.16h-1l6-16.28Zm2,8.21-2.48-6.83-2.48,6.83Z"/><polygon class="cls-10" points="49.39 61.1 50.36 61.1 44.51 77.38 43.95 77.38 38.1 61.1 39.06 61.1 44.23 75.72 49.39 61.1"/><rect class="cls-10" x="55.65" y="61.1" width="0.92" height="16.28"/><polygon class="cls-10" points="71.3 61.1 71.3 62.02 64.08 62.02 64.08 68.78 71.3 68.78 71.3 69.7 64.08 69.7 64.08 76.46 71.3 76.46 71.3 77.38 63.16 77.38 63.16 61.1 71.3 61.1"/><path class="cls-10" d="M90.53,61.1a8.47,8.47,0,0,1,6.23,2.25,8.35,8.35,0,0,1,0,11.8,8.5,8.5,0,0,1-6.23,2.23h-3V61.1Zm-2.1,1V76.44h2.09a7.68,7.68,0,0,0,5.54-2,7.44,7.44,0,0,0,0-10.48,7.67,7.67,0,0,0-5.54-1.94Z"/><path class="cls-10" d="M105.69,62.78a.74.74,0,0,1-.4-.23.85.85,0,0,1-.28-.66.83.83,0,0,1,.27-.63.88.88,0,0,1,.65-.26.86.86,0,0,1,.64.26.83.83,0,0,1,.27.63,1.1,1.1,0,0,1-.07.41l-1,2h-.65Z"/><rect class="cls-10" x="112.69" y="61.1" width="0.92" height="16.28"/><polygon class="cls-10" points="121.33 61.1 132.15 76.26 132.15 61.1 133.07 61.1 133.07 77.38 131.65 77.38 121.08 62.57 121.08 77.38 120.16 77.38 120.16 61.1 121.33 61.1"/><polygon class="cls-10" points="143.62 62.02 143.62 77.38 142.71 77.38 142.71 62.02 138.59 62.02 138.59 61.1 147.74 61.1 147.74 62.02 143.62 62.02"/><path class="cls-10" d="M161.43,61.1V62h-7.22v6.76h7.22v.92h-7.22v6.76h7.22v.92h-8.14V61.1ZM159.6,58l-2.5,1.9h-.85l1.66-1.9Z"/><path class="cls-10" d="M171.86,71.74h-3v5.64h-.92V61.1h4.27a5.45,5.45,0,0,1,3.17,1.55,5.35,5.35,0,0,1-2.48,8.94l3.75,5.79h-1.12Zm-3-9.71v8.78h2.76a4.39,4.39,0,1,0,0-8.78Z"/><rect class="cls-10" x="182.94" y="61.1" width="0.92" height="16.28"/><polygon class="cls-10" points="198.59 61.1 198.59 62.02 191.37 62.02 191.37 68.78 198.59 68.78 198.59 69.7 191.37 69.7 191.37 76.46 198.59 76.46 198.59 77.38 190.45 77.38 190.45 61.1 198.59 61.1"/><path class="cls-10" d="M214.77,61.1h.92V72.8A5.4,5.4,0,0,1,214.14,76a5.32,5.32,0,0,1-9.08-3.75V61.1H206V72.21a4.4,4.4,0,0,0,8.79,0Z"/><path class="cls-10" d="M226.12,71.74h-3v5.64h-.92V61.1h4.27a5.42,5.42,0,0,1,3.17,1.55,5.35,5.35,0,0,1-2.48,8.94l3.76,5.79h-1.13Zm-3-9.71v8.78h2.76a4.39,4.39,0,1,0,0-8.78Z"/></g></g></svg>