<svg xmlns="http://www.w3.org/2000/svg" xmlns:xlink="http://www.w3.org/1999/xlink" viewBox="0 0 302.18 217.73"><defs><style>.cls-1{fill:#fff;}.cls-2{fill:url(#linear-gradient);}.cls-3{fill:url(#linear-gradient-2);}.cls-4{fill:#242d63;}.cls-5{fill:none;}.cls-6{fill:url(#linear-gradient-3);}.cls-7{fill:url(#linear-gradient-4);}.cls-8{fill:url(#linear-gradient-5);}.cls-9{fill:url(#linear-gradient-6);}.cls-10{fill:url(#linear-gradient-7);}.cls-11{fill:url(#linear-gradient-8);}.cls-12{fill:url(#linear-gradient-9);}.cls-13{fill:url(#linear-gradient-10);}.cls-14{fill:url(#linear-gradient-11);}.cls-15{fill:url(#linear-gradient-12);}.cls-16{fill:url(#linear-gradient-13);}.cls-17{fill:url(#linear-gradient-14);}.cls-18{fill:#dc2e27;}</style><linearGradient id="linear-gradient" x1="136.79" y1="104.45" x2="176.47" y2="104.45" gradientTransform="matrix(1, 0, 0, -1, 0, 176.63)" gradientUnits="userSpaceOnUse"><stop offset="0.03" stop-color="#c29331"/><stop offset="0.03" stop-color="#c39432"/><stop offset="0.11" stop-color="#d6b34c"/><stop offset="0.2" stop-color="#e4cb5d"/><stop offset="0.29" stop-color="#efdd6b"/><stop offset="0.39" stop-color="#f5e573"/><stop offset="0.51" stop-color="#f6e875"/><stop offset="0.62" stop-color="#f4e573"/><stop offset="0.72" stop-color="#ebd969"/><stop offset="0.83" stop-color="#dcc55a"/><stop offset="0.93" stop-color="#c7aa43"/><stop offset="1" stop-color="#b6932f"/></linearGradient><linearGradient id="linear-gradient-2" x1="125.68" y1="104.45" x2="165.35" y2="104.45" xlink:href="#linear-gradient"/><linearGradient id="linear-gradient-3" x1="136.79" y1="99.72" x2="176.47" y2="99.72" xlink:href="#linear-gradient"/><linearGradient id="linear-gradient-4" x1="136.79" y1="90.02" x2="176.47" y2="90.02" xlink:href="#linear-gradient"/><linearGradient id="linear-gradient-5" x1="136.79" y1="97.33" x2="176.47" y2="97.33" xlink:href="#linear-gradient"/><linearGradient id="linear-gradient-6" x1="125.68" y1="99.73" x2="165.35" y2="99.73" xlink:href="#linear-gradient"/><linearGradient id="linear-gradient-7" x1="125.68" y1="97.32" x2="165.35" y2="97.32" xlink:href="#linear-gradient"/><linearGradient id="linear-gradient-8" x1="125.68" y1="90.02" x2="165.35" y2="90.02" xlink:href="#linear-gradient"/><linearGradient id="linear-gradient-9" x1="119.35" y1="13.97" x2="138.59" y2="13.97" xlink:href="#linear-gradient"/><linearGradient id="linear-gradient-10" x1="128.75" y1="0.01" x2="152.14" y2="0.01" xlink:href="#linear-gradient"/><linearGradient id="linear-gradient-11" x1="227.79" y1="92.72" x2="244.65" y2="92.72" xlink:href="#linear-gradient"/><linearGradient id="linear-gradient-12" x1="57.85" y1="36.52" x2="74.98" y2="36.52" xlink:href="#linear-gradient"/><linearGradient id="linear-gradient-13" x1="63.68" y1="123.48" x2="238.02" y2="123.48" xlink:href="#linear-gradient"/><linearGradient id="linear-gradient-14" x1="64.18" y1="6.06" x2="238.47" y2="6.06" xlink:href="#linear-gradient"/></defs><title>lgolvi+rd</title><g id="Layer_2" data-name="Layer 2"><g id="Layer_1-2" data-name="Layer 1"><path class="cls-1" d="M86,73.06a2.28,2.28,0,0,0-.62-.49,2,2,0,0,0-1.31-.29c-.42.08-.84.58-1.31,1.31L82.5,74l3.1,1.78.45-.81a2.68,2.68,0,0,0,.22-.73,1.47,1.47,0,0,0,0-.66A1.2,1.2,0,0,0,86,73.06Z"/><path class="cls-1" d="M192.56,44.4a2.09,2.09,0,0,0-2.09-.21,4.4,4.4,0,0,0-2.08,1.94,4.43,4.43,0,0,0-.85,2.7,2.22,2.22,0,0,0,1.19,1.83,2.28,2.28,0,0,0,2.13.25,4.36,4.36,0,0,0,2-2,4.25,4.25,0,0,0,.93-2.62A2.29,2.29,0,0,0,192.56,44.4Z"/><polygon class="cls-1" points="206.18 56.79 202.82 58.1 204.75 60.11 206.18 56.79"/><path class="cls-1" d="M168.79,41.9a2.17,2.17,0,0,0,1.3-.81,4.29,4.29,0,0,0,1-1.93,5.8,5.8,0,0,0,.16-1.81,3.22,3.22,0,0,0-.42-1.39,2.61,2.61,0,0,0-.87-.91,5.59,5.59,0,0,0-1.43-.53,7.8,7.8,0,0,0-.89-.18l-1.75,7.16,1.21.27A4.21,4.21,0,0,0,168.79,41.9Z"/><path class="cls-1" d="M159,34.48a1.48,1.48,0,0,0,0-.42.76.76,0,0,0-.16-.34.67.67,0,0,0-.27-.23,1,1,0,0,0-.37-.11.82.82,0,0,0-.68.21.92.92,0,0,0-.3.64h0a3.37,3.37,0,0,0,.66,1.57A1.66,1.66,0,0,0,159,34.48Z"/><path class="cls-1" d="M157.53,40.11a2.1,2.1,0,0,0,1.47-.57l.09-.09-1.88-3a2.61,2.61,0,0,0-.92.76,1.58,1.58,0,0,0-.4.9,1.86,1.86,0,0,0,.34,1.31A1.68,1.68,0,0,0,157.53,40.11Z"/><polygon class="cls-1" points="119.86 44.35 117.13 41.97 117.36 45.51 119.86 44.35"/><path class="cls-1" d="M136.54,40.81l-.06,0a2.15,2.15,0,0,0,2.1.55A2.25,2.25,0,0,0,140.32,40a4.33,4.33,0,0,0,.1-2.82,4.36,4.36,0,0,0-1.11-2.61,2.3,2.3,0,0,0-2.18-.55,2.1,2.1,0,0,0-1.67,1.3,4.41,4.41,0,0,0-.23,2.84A4.45,4.45,0,0,0,136.54,40.81Z"/><path class="cls-1" d="M215.12,78.28a4.25,4.25,0,0,0,2.74-.76A4.31,4.31,0,0,0,220,75.68a2.32,2.32,0,0,0-.13-2.24,2.1,2.1,0,0,0-1.71-1.22,4.44,4.44,0,0,0-2.77.66,4.33,4.33,0,0,0-2.09,2v0a2.19,2.19,0,0,0,.12,2.17A2.23,2.23,0,0,0,215.12,78.28Z"/><path class="cls-1" d="M200.72,50.82c0-.43-.43-.92-1.15-1.51l-.39-.31-2.26,2.76.73.64a2.79,2.79,0,0,0,.73.37,1.21,1.21,0,0,0,.65.07,1.11,1.11,0,0,0,.59-.18,2,2,0,0,0,.59-.54A1.9,1.9,0,0,0,200.72,50.82Z"/><polygon class="cls-1" points="95.54 62.87 97.41 60.82 93.99 59.6 95.54 62.87"/><path class="cls-1" d="M151.07,72.82l.67-.61-.67-.68-.66.68Z"/><path class="cls-2" d="M151.07,72.82l.67-.61-.67-.68-.66.68Z"/><path class="cls-3" d="M151.07,72.82l.67-.61-.67-.68-.66.68Z"/><path class="cls-4" d="M94.37,69.56a5.23,5.23,0,0,0,.77-1.68,3.09,3.09,0,0,0,0-1,1.49,1.49,0,0,0-.66-1.17l-1-.75-.66.9,1.09.77a1.75,1.75,0,0,1,.6.64,1.33,1.33,0,0,1,.11.88,2.62,2.62,0,0,1-2.27,2.08,4.29,4.29,0,0,1-2.81-1.06,4,4,0,0,1-1.83-2.33,2.67,2.67,0,0,1,.47-2,2.56,2.56,0,0,1,1.61-1.05,2.81,2.81,0,0,1,.58,0v-.36A3.17,3.17,0,0,0,88,64.87a3.51,3.51,0,0,0-.67,3A4.31,4.31,0,0,0,89,70.44a3.69,3.69,0,0,0,2.87.72A3.78,3.78,0,0,0,94.37,69.56Z"/><path class="cls-4" d="M99.16,61.43l1.47.54.85-.93L93.31,58.2l-.17.17,3.65,7.85.29-.32-1.4-2.8,2-2.18Zm-3.62,1.44L94,59.6l3.42,1.22Z"/><polygon class="cls-4" points="107.58 55.67 103.34 50.77 102.39 49.66 102.12 49.88 103.04 50.92 106.07 54.44 98.67 52.84 97.76 53.63 99 55.07 101.69 58.19 102.83 59.5 103.01 59.33 101.89 58.02 98.37 53.94 107.41 55.81 107.58 55.67"/><polygon class="cls-4" points="109.5 54.27 110.44 53.59 109.22 51.92 106.92 48.75 105.76 47.16 104.83 47.84 105.98 49.43 108.28 52.6 109.5 54.27"/><path class="cls-4" d="M113.63,51.05a2.61,2.61,0,0,1-2.28-.14v.31a3.23,3.23,0,0,0,2.62,0,2.5,2.5,0,0,0,1.3-1.3,2.09,2.09,0,0,0-.1-1.73v0a2.11,2.11,0,0,0-.71-.86,1.79,1.79,0,0,0-1-.35,14.06,14.06,0,0,0-1.59,0,6.1,6.1,0,0,1-1.65-.13,1.16,1.16,0,0,1-.77-1.45,1.18,1.18,0,0,1,.75-.76,1.73,1.73,0,0,1,1.3-.11l.34.14.11-.31a2.34,2.34,0,0,0-1.07-.19,2.42,2.42,0,0,0-.91.25,2.08,2.08,0,0,0-1.06,1.12A1.79,1.79,0,0,0,109,47a2,2,0,0,0,.67.79,2.31,2.31,0,0,0,1,.38,13.71,13.71,0,0,0,1.57,0,4.5,4.5,0,0,1,1.55.15,1.32,1.32,0,0,1,.78,1.81A1.63,1.63,0,0,1,113.63,51.05Z"/><path class="cls-4" d="M116.74,40.53l.52,8.6.38-.18-.18-3.1,2.61-1.31,1.09,1,1.19,1,1.13-.55L117,40.44Zm3.12,3.82-2.49,1.16L117.13,42Z"/><polygon class="cls-4" points="126.93 36.52 126.83 36.27 119.57 39.16 119.67 39.41 121.65 38.61 122.75 38.18 124.82 43.37 125.59 45.31 126.67 44.88 125.89 42.94 123.82 37.75 125.05 37.26 126.93 36.52"/><polygon class="cls-4" points="131.51 43.26 132.62 42.94 132.04 40.95 130.97 37.2 130.42 35.3 129.31 35.62 129.85 37.51 130.93 41.28 131.51 43.26"/><path class="cls-4" d="M135.64,41a4,4,0,0,0,5.5-1.08,3.84,3.84,0,0,0,.62-3A3.72,3.72,0,0,0,140,34.27a3.77,3.77,0,0,0-2.9-.54,3.73,3.73,0,0,0-2.49,1.56l0,.09a3.67,3.67,0,0,0-.65,3A3.83,3.83,0,0,0,135.64,41Zm-.18-5.66a2.1,2.1,0,0,1,1.67-1.3,2.3,2.3,0,0,1,2.18.55,4.36,4.36,0,0,1,1.11,2.61,4.33,4.33,0,0,1-.1,2.82,2.25,2.25,0,0,1-1.74,1.31,2.15,2.15,0,0,1-2.1-.55l.06,0a4.45,4.45,0,0,1-1.31-2.62A4.41,4.41,0,0,1,135.46,35.35Z"/><polygon class="cls-4" points="144.15 32.66 144.25 34.56 144.47 38.67 144.57 40.4 144.83 40.39 144.74 38.66 144.44 33.28 150.46 40.28 150.67 40.27 150.32 33.8 150.24 32.32 149.91 32.35 149.98 33.73 150.24 38.37 145.35 32.6 144.15 32.66"/><path class="cls-4" d="M155,38.41a1.64,1.64,0,0,0,.09.85,2.28,2.28,0,0,0,.44.71,2.11,2.11,0,0,0,1.36.7,2.88,2.88,0,0,0,2-.77l.12-.1.13-.11L160,41l1.12.11-1.25-2,1.46-1.31H161l-1.22,1.08L158,36c1.13-.44,1.59-1,1.59-1.54a1,1,0,0,0-.35-.94,1.72,1.72,0,0,0-1.07-.45,1.54,1.54,0,0,0-1.18.36,1.44,1.44,0,0,0-.55,1,3.33,3.33,0,0,0,.64,1.74,6.54,6.54,0,0,0-1.54,1.07A1.86,1.86,0,0,0,155,38.41Zm2.15-4.18a.92.92,0,0,1,.3-.64.82.82,0,0,1,.68-.21,1,1,0,0,1,.37.11.67.67,0,0,1,.27.23.76.76,0,0,1,.16.34,1.48,1.48,0,0,1,0,.42,1.66,1.66,0,0,1-1.14,1.31,3.37,3.37,0,0,1-.66-1.57Zm-1.3,3.87a1.58,1.58,0,0,1,.4-.9,2.61,2.61,0,0,1,.92-.76l1.88,3-.09.09a2.1,2.1,0,0,1-1.47.57,1.68,1.68,0,0,1-1.3-.7A1.86,1.86,0,0,1,155.89,38.1Z"/><path class="cls-4" d="M169.53,42.27a3.16,3.16,0,0,0,1.22-.45,3.39,3.39,0,0,0,1-1,4.77,4.77,0,0,0,.64-1.46,4.68,4.68,0,0,0,0-2.17,3.5,3.5,0,0,0-1.09-1.75,5.74,5.74,0,0,0-2.55-1.18l-2.14-.53-1.87,7.7,2.12.52a7.63,7.63,0,0,0,1.5.3A4,4,0,0,0,169.53,42.27Zm-3.68-.77,1.75-7.16a7.8,7.8,0,0,1,.89.18,5.59,5.59,0,0,1,1.43.53,2.61,2.61,0,0,1,.87.91,3.22,3.22,0,0,1,.42,1.39,5.8,5.8,0,0,1-.16,1.81,4.29,4.29,0,0,1-1,1.93,2.17,2.17,0,0,1-1.3.81,4.21,4.21,0,0,1-1.73-.13Z"/><polygon class="cls-4" points="179.74 35.72 178.77 36.3 179.19 36.47 180.26 35.93 179.74 35.72"/><polygon class="cls-4" points="175.68 38.19 174.6 40.91 174.43 41.34 174.24 41.86 173.49 43.76 177.83 45.46 177.94 45.21 175.65 44.31 174.8 43.92 175.44 42.27 175.65 41.76 175.75 41.48 175.75 41.31 176.11 40.41 176.89 40.71 178.26 41.25 178.35 40.99 176.96 40.45 176.21 40.15 176.73 38.84 176.81 38.62 177.44 37.03 178.43 37.42 180.72 38.32 180.81 38.07 176.46 36.36 175.68 38.19"/><path class="cls-4" d="M183.24,40.5a2.36,2.36,0,0,1,2.19-.06,2.89,2.89,0,0,1,1.3,1.31,2.49,2.49,0,0,1,.2.6l.29-.09a3.29,3.29,0,0,0-.62-1.13,3.58,3.58,0,0,0-1.3-1,4,4,0,0,0-2-.38,3.22,3.22,0,0,0-1.88.77,5,5,0,0,0-1.31,1.74c-.06.12-.12.24-.17.36a3.62,3.62,0,0,0,2,4.71,3.33,3.33,0,0,0,2.86,0l0-.28a2.15,2.15,0,0,1-1.13.32,2.83,2.83,0,0,1-1.31-.27A2.46,2.46,0,0,1,181,45.47a4,4,0,0,1,.42-2.73A4.69,4.69,0,0,1,183.24,40.5Z"/><path class="cls-4" d="M194,49.6a3.63,3.63,0,0,0,.5-3.1,4.06,4.06,0,0,0-4.65-2.9,3.67,3.67,0,0,0-2.53,1.78,3.89,3.89,0,0,0-.55,3.11,4.07,4.07,0,0,0,4.72,3A3.82,3.82,0,0,0,194,49.6Zm-3.12,1.31a2.28,2.28,0,0,1-2.13-.25,2.22,2.22,0,0,1-1.19-1.83,4.43,4.43,0,0,1,.85-2.7,4.4,4.4,0,0,1,2.08-1.94,2.09,2.09,0,0,1,2.09.21,2.29,2.29,0,0,1,1.22,1.88,4.25,4.25,0,0,1-.93,2.62A4.36,4.36,0,0,1,190.86,50.91Z"/><path class="cls-4" d="M201.27,52.86a1.66,1.66,0,0,0,.39-1.15,2.59,2.59,0,0,0-.48-1.23,7.07,7.07,0,0,0-1.31-1.31l-1.35-1.1-1.3,1.55-2.43,3-1.31,1.62.87.72,1.31-1.63,1.05-1.3.27.22c1.69,1.37.43,4.76.28,5.1l.7.59a12.61,12.61,0,0,0,.6-2.84,3.55,3.55,0,0,0-.38-2,3,3,0,0,0,1.78.48A1.72,1.72,0,0,0,201.27,52.86Zm-1.65-.2a1.11,1.11,0,0,1-.59.18,1.21,1.21,0,0,1-.65-.07,2.79,2.79,0,0,1-.73-.37l-.73-.64L199.18,49l.39.31c.72.59,1.15,1.08,1.15,1.51a1.9,1.9,0,0,1-.51,1.3A2,2,0,0,1,199.62,52.66Z"/><path class="cls-4" d="M202.6,58.23l2,2.14L204,61.76l-.64,1.44.88.91,3.36-8-.16-.17-8,3.17.3.3Zm3.58-1.44-1.43,3.32-1.93-2Z"/><polygon class="cls-4" points="205.58 65.86 206.31 66.77 207.94 65.43 212.25 61.88 213.09 62.9 214.37 64.46 214.57 64.29 209.62 58.27 209.41 58.42 210.77 60.09 211.52 60.99 207.19 64.53 205.58 65.86"/><polygon class="cls-4" points="214.94 68.52 216.57 67.42 215.93 66.45 214.29 67.55 211.05 69.72 209.32 70.87 209.97 71.84 211.69 70.69 214.94 68.52"/><polygon class="cls-5" points="20.35 111.27 26.84 111.27 23.59 102.34 20.35 111.27"/><path class="cls-5" d="M301,107.5a5.74,5.74,0,0,0-5.73-5.74h-3.62v11.47h3.61A5.73,5.73,0,0,0,301,107.5Z"/><path class="cls-1" d="M81.3,85.16a4.57,4.57,0,0,0,2.84.39,2.21,2.21,0,0,0,1.62-1.47,2.25,2.25,0,0,0-.11-2.15,4.34,4.34,0,0,0-2.3-1.64,4.24,4.24,0,0,0-2.75-.49,2.39,2.39,0,0,0-1.68,1.51,2.11,2.11,0,0,0,.13,2.09A4.41,4.41,0,0,0,81.3,85.16Z"/><path class="cls-1" d="M125.56,104.28a10,10,0,0,0-7.24-2.54l-2.73.11v18.74h2.73a10,10,0,0,0,7.24-2.61A9.73,9.73,0,0,0,125.56,104.28Z"/><path class="cls-1" d="M130.4,188.34a1,1,0,0,0,1.16-.13,5.37,5.37,0,0,0,1.4-1.49c.5-.69.87-1.31,1.15-1.7s.57-1,.9-1.56l.07-.14v-.21l.1,0c1.31-2.37,2.8-5.23,4.29-8.5a25.44,25.44,0,0,0-5.84,4.85,17.09,17.09,0,0,0-3.51,5.37,7.72,7.72,0,0,0-.3,1.17,4.05,4.05,0,0,0,0,1.3A1.33,1.33,0,0,0,130.4,188.34Z"/><path class="cls-1" d="M177.54,169.88c2.27,0,3.29-1.47,3.29-4.72s-1.05-4.88-3.26-4.88-3.28,1.55-3.28,4.81S175.28,169.88,177.54,169.88Z"/><path class="cls-1" d="M224.33,101.76h-3.61v11.47h3.61a5.74,5.74,0,1,0,0-11.47Z"/><path class="cls-1" d="M151.09,0a108.87,108.87,0,1,0,108.1,121.82H248.94V100.54h10.64v1.2h-9.44v8.84h9.44v1.2h-9.44v8.84h9.18A108.83,108.83,0,0,0,151.09,0ZM123.43,24.88A91.22,91.22,0,0,1,238,84.14h-1.3a90,90,0,0,0-171.8,1.58H63.68A91.21,91.21,0,0,1,123.43,24.88ZM230.9,121.82h-1.46l-4.8-7.37h-3.92v7.37h-1.2V100.54h5.58a7.14,7.14,0,0,1,4.14,2A7,7,0,0,1,226,114.25Zm-6.84-35.89-6,2.31L218,88l4.82-7.88-5,1.94-1.62.61-.09-.23,1.62-.62,3.84-1.48,1.78-.68.43,1.13-4,6.42L224,85.59l1.3-.51.12.31ZM211,110.55v1.21h-9.44v8.83H211v1.2H200.37V100.54H211v1.18h-9.44v8.83ZM198.56,55.08a12.61,12.61,0,0,1-.6,2.84l-.7-.59c.15-.34,1.41-3.73-.28-5.1l-.27-.22-1.05,1.3-1.31,1.63-.87-.72,1.31-1.62,2.43-3,1.3-1.55,1.35,1.1a7.07,7.07,0,0,1,1.31,1.31,2.59,2.59,0,0,1,.48,1.23,1.66,1.66,0,0,1-.39,1.15,1.72,1.72,0,0,1-1.31.65,3,3,0,0,1-1.78-.48A3.55,3.55,0,0,1,198.56,55.08Zm-17.41,46.66v-1.2h12v1.2h-5.38v20.08h-1.19V101.74Zm-13.7,66.44a5.08,5.08,0,0,0,0-.78V156.81c0-1.95-.19-2.36-1.47-2.36h-.19v-.58a10.31,10.31,0,0,0,3.17-.51h.25l.07,13.28c0,2.62,0,2.81,1.48,2.82h.29V170h-5.32v-.58H166c.73,0,1.1-.11,1.31-.45A1.4,1.4,0,0,0,167.45,168.18Zm-9.19-65.72v19.36h-1.2V100.54h1.53l14.14,19.82V100.54h1.21v21.28h-1.86Zm-1,67.25a6.45,6.45,0,0,0,3.27-1,6.92,6.92,0,0,0,2.61-4.8l.5-.07v5.81h-.53a4.12,4.12,0,0,0-.78-1.73,7.11,7.11,0,0,1-5.54,2.43A7.74,7.74,0,0,1,148.7,163a7.45,7.45,0,0,1,0-.82c0-5.23,3.29-8.83,8-8.83a7.37,7.37,0,0,1,5.57,2.42,6.51,6.51,0,0,0,.64-2.12h.52l.15,6.24h-.53a8.82,8.82,0,0,0-1.3-3.61,5.67,5.67,0,0,0-4.68-2.31c-3.54,0-5.66,3-5.66,8.1C151.47,166.73,153.73,169.71,157.26,169.71Zm-20.21-6.53a1.81,1.81,0,0,0-.9-.53,8.51,8.51,0,0,0-1.13-.14,5,5,0,0,0-1.09,0,14.57,14.57,0,0,0-3.13.61,43.21,43.21,0,0,1-4.28,2.07c-.54,1.45-1,2.61-1.43,3.45a.27.27,0,0,1-.33.17l-.05,0a.29.29,0,0,1-.2-.35h0c.23-.82.54-1.76.94-2.82-.91.35-1.81.67-2.71,1a.32.32,0,0,1-.27,0,.27.27,0,0,1-.17-.16.45.45,0,0,1,0-.23.43.43,0,0,1,.07-.25.41.41,0,0,1,.2-.17c.65-.26,1.82-.8,3.49-1.58l.52-1.31c.11-.24.28-.72.54-1.48s.5-1.3.71-1.85a10.76,10.76,0,0,1,.7-1.4.15.15,0,0,1,0-.16l.14-.19a.18.18,0,0,1,.26,0h0a.21.21,0,0,1,.1.24,11.92,11.92,0,0,1-.44,1.76c-.2.59-.48,1.32-.83,2.19l-.68,1.67v.08a32.74,32.74,0,0,1,3.81-1.5l1.15-.69c.45-.26.85-.5,1.15-.71l1.3-.87a9.34,9.34,0,0,0,1.31-1.12,14.59,14.59,0,0,0,1.05-1.17,4.12,4.12,0,0,0,.73-1.31,2.64,2.64,0,0,0,0-1.31,1.83,1.83,0,0,0-.3-.77,2.28,2.28,0,0,0-.59-.57,5.37,5.37,0,0,0-.73-.43,4.27,4.27,0,0,0-.84-.32l-.83-.18a5.44,5.44,0,0,0-.8-.09,10.87,10.87,0,0,0-3.22.17,10.31,10.31,0,0,0-2.89,1,15.34,15.34,0,0,0-2.51,1.73,14,14,0,0,0-2.15,2.27A25.41,25.41,0,0,0,121,160.5a20.9,20.9,0,0,0-1.39,2.65s0,.08-.1.08a.24.24,0,0,1-.12,0,.12.12,0,0,1,0-.14,17.43,17.43,0,0,1,2.94-5.87,14.12,14.12,0,0,1,4.84-4.11,12.84,12.84,0,0,1,3.72-1.24,10.76,10.76,0,0,1,3.92,0,6.71,6.71,0,0,1,2.49,1.06,2.62,2.62,0,0,1,1.16,2,4.18,4.18,0,0,1-.35,2,6.44,6.44,0,0,1-1.31,1.84,17.55,17.55,0,0,1-1.63,1.48c-.54.41-1.14.83-1.82,1.3a8.37,8.37,0,0,1,2.91.15,2.71,2.71,0,0,1,1.58,1,1.88,1.88,0,0,1,.38,1.43,5.48,5.48,0,0,1-.51,1.67,8.55,8.55,0,0,1-1,1.61,10.74,10.74,0,0,1-1.13,1.3,22.73,22.73,0,0,1,2.61,0l0,.08a.34.34,0,0,1,.31.21.36.36,0,0,1,0,.35.3.3,0,0,1-.31.17,31.2,31.2,0,0,0-3.62.08,19.1,19.1,0,0,1-7.11,3.92,2.18,2.18,0,0,1-1.47,0,.69.69,0,0,1-.39-.83,2.16,2.16,0,0,1,.92-1.18,14.84,14.84,0,0,1,7.68-2.68,14.56,14.56,0,0,0,1.75-1.67,4.69,4.69,0,0,0,1.46-2.89A1.6,1.6,0,0,0,137.05,163.18ZM114.56,49a1.36,1.36,0,0,0-.78-.69,4.5,4.5,0,0,0-1.55-.15,13.71,13.71,0,0,1-1.57,0,2.31,2.31,0,0,1-1-.38A2,2,0,0,1,109,47a1.79,1.79,0,0,1-.08-1.45A2.08,2.08,0,0,1,110,44.39a2.42,2.42,0,0,1,.91-.25,2.34,2.34,0,0,1,1.07.19l-.11.31-.34-.14a1.73,1.73,0,0,0-1.3.11,1.18,1.18,0,0,0-.75.76,1.16,1.16,0,0,0,.77,1.45,6.1,6.1,0,0,0,1.65.13,14.06,14.06,0,0,1,1.59,0,1.79,1.79,0,0,1,1,.35,2.11,2.11,0,0,1,.71.86v0a2.09,2.09,0,0,1,.1,1.73,2.5,2.5,0,0,1-1.3,1.3,3.23,3.23,0,0,1-2.62,0v-.31a2.61,2.61,0,0,0,2.28.14,1.63,1.63,0,0,0,.93-1A1.37,1.37,0,0,0,114.56,49ZM101.89,58,103,59.33l-.18.17-1.14-1.31L99,55.07l-1.24-1.44.91-.79,7.4,1.6-3-3.52-.92-1,.27-.23,1,1.12,4.24,4.9-.17.14-9-1.87ZM97.08,65.9l-.29.32-3.65-7.85.17-.17L101.48,61l-.85.93-1.47-.54-1.49-.51-2,2.18ZM93.2,110.58v1.2H83.76v8.84H93.2v1.2H82.56V100.54H93.2v1.2H83.76v8.84ZM78.66,81.17a3.81,3.81,0,0,1,2-2.13,3.63,3.63,0,0,1,3.15,0,3.77,3.77,0,0,1,2.21,2.18,4.05,4.05,0,0,1-2.16,5.13,3.84,3.84,0,0,1-3.15,0,3.62,3.62,0,0,1-2.15-2.21l.06,0A3.67,3.67,0,0,1,78.66,81.17Zm9.87-7.57a13.31,13.31,0,0,1,2.89.13l-.45.8c-.36-.11-3.92-.77-5,1.11l-.17.3,1.45.82,1.83,1-.56,1-1.83-1-3.33-1.91-1.74-1,.86-1.53a6.64,6.64,0,0,1,1.07-1.49,2.36,2.36,0,0,1,1.13-.68,1.6,1.6,0,0,1,1.21.18,1.69,1.69,0,0,1,.85,1.15,2.88,2.88,0,0,1-.18,1.83A3.75,3.75,0,0,1,88.53,73.6Zm3.35-2.44A3.69,3.69,0,0,1,89,70.44,4.31,4.31,0,0,1,87.3,67.9a3.51,3.51,0,0,1,.67-3,3.17,3.17,0,0,1,2.38-1.41v.36a2.81,2.81,0,0,0-.58,0,2.56,2.56,0,0,0-1.61,1.05,2.67,2.67,0,0,0-.47,2,4,4,0,0,0,1.83,2.33,4.29,4.29,0,0,0,2.81,1.06,2.62,2.62,0,0,0,2.27-2.08,1.33,1.33,0,0,0-.11-.88,1.75,1.75,0,0,0-.6-.64L92.8,65.9l.66-.9,1,.75a1.49,1.49,0,0,1,.66,1.17,3.09,3.09,0,0,1,0,1,5.23,5.23,0,0,1-.77,1.68A3.78,3.78,0,0,1,91.88,71.16ZM106,49.43l-1.15-1.59.93-.68,1.16,1.59,2.3,3.17,1.22,1.67-.94.68-1.22-1.67Zm8.43,51.11h3.92a11.1,11.1,0,0,1,8.15,2.94,10.93,10.93,0,0,1,0,15.43,11.12,11.12,0,0,1-8.15,2.91h-3.92ZM132,79c1.82-1.82,3.94-3.91,6.24-6.11,1.15-1.11,2.28-2.23,3.59-3.35.61-.57,1.26-1.13,1.92-1.68a12.09,12.09,0,0,1,1.09-.79,1.45,1.45,0,0,1,1-.32,2.19,2.19,0,0,1,.83.46c1.49,1.44,3,2.89,4.37,4.32,1.41-1.43,2.88-2.88,4.37-4.32a2.22,2.22,0,0,1,.82-.46,1.55,1.55,0,0,1,1,.32c.4.26.74.52,1.08.79.66.55,1.3,1.11,1.93,1.68,1.31,1.12,2.43,2.24,3.58,3.35,2.3,2.2,4.42,4.29,6.24,6.11,3.63,3.62,6,6.1,6.14,6.19a1.31,1.31,0,0,1-1.82,1.7c-.09-.09-2.39-2.68-5.84-6.44-1.72-1.88-3.72-4.07-5.91-6.37-1.1-1.13-2.23-2.31-3.41-3.47-.59-.59-1.18-1.17-1.79-1.7-.29-.27-.6-.52-.91-.76a.24.24,0,0,0-.13-.09c-.08,0-.21,0-.25.14-1.51,1.33-3,2.67-4.45,4,6.5,6.61,11.77,12.58,13.21,14.18.26.25.39.39.4.37v.06s-.15-.15-.4-.43c-1.5-1.49-7.14-7.31-13.88-13.57-6.73,6.25-12.36,12.07-13.88,13.57-.25.28-.39.43-.4.43v-.06s.15-.12.4-.37c1.46-1.61,6.73-7.57,13.22-14.18-1.45-1.34-2.95-2.68-4.46-4,0-.09-.14-.1-.22-.13a.34.34,0,0,0-.14.08,12,12,0,0,0-.93.76c-.6.53-1.2,1.11-1.79,1.7-1.18,1.16-2.32,2.34-3.4,3.47-2.18,2.3-4.2,4.49-5.92,6.37-3.45,3.76-5.75,6.35-5.85,6.44a1.28,1.28,0,0,1-1.16,0,1.32,1.32,0,0,1-.64-1.74C126,85.1,128.41,82.62,132,79Zm-2.72-43.38,1.11-.32.55,1.9L132,41l.58,2-1.11.32-.58-2-1.08-3.77Zm5.28-.24,0-.09a3.73,3.73,0,0,1,2.49-1.56,3.77,3.77,0,0,1,2.9.54,3.72,3.72,0,0,1,1.74,2.61,3.84,3.84,0,0,1-.62,3,4,4,0,0,1-5.5,1.08,3.83,3.83,0,0,1-1.7-2.61A3.67,3.67,0,0,1,134.59,35.38ZM150,33.73l-.07-1.38.33,0,.08,1.48.35,6.47h-.21l-6-7,.3,5.38.09,1.73h-.26l-.1-1.73-.22-4.11-.1-1.9,1.2-.06,4.89,5.77Zm6.44.71a1.44,1.44,0,0,1,.55-1,1.54,1.54,0,0,1,1.18-.36,1.72,1.72,0,0,1,1.07.45,1,1,0,0,1,.35.94c0,.56-.46,1.1-1.59,1.54l1.77,2.82L161,37.76h.38l-1.46,1.31,1.25,2L160,41l-.79-1.31-.13.11-.12.1a2.88,2.88,0,0,1-2,.77,2.11,2.11,0,0,1-1.36-.7,2.28,2.28,0,0,1-.44-.71,1.64,1.64,0,0,1-.09-.85,1.86,1.86,0,0,1,.48-1.16,6.54,6.54,0,0,1,1.54-1.07A3.33,3.33,0,0,1,156.42,34.44Zm8.3,7,1.87-7.7,2.14.53a5.74,5.74,0,0,1,2.55,1.18,3.5,3.5,0,0,1,1.09,1.75,4.68,4.68,0,0,1,0,2.17,4.77,4.77,0,0,1-.64,1.46,3.39,3.39,0,0,1-1,1,3.16,3.16,0,0,1-1.22.45,4,4,0,0,1-1.19,0,7.63,7.63,0,0,1-1.5-.3Zm16.09-3.38-.09.25-2.29-.9-1-.39-.63,1.59-.08.22-.52,1.31.75.3,1.4.54-.1.26-1.37-.54-.78-.3-.36.91v.17l-.1.27-.21.51-.64,1.65.85.39,2.29.9-.11.25-4.34-1.7.75-1.9.19-.52.17-.43,1.08-2.72.78-1.83Zm-2-1.77,1-.58.52.21-1.07.54ZM181,45.47a2.46,2.46,0,0,0,1.38,1.65,2.83,2.83,0,0,0,1.31.27,2.15,2.15,0,0,0,1.13-.32l0,.28a3.33,3.33,0,0,1-2.86,0,3.62,3.62,0,0,1-2-4.71c0-.12.11-.24.17-.36a5,5,0,0,1,1.31-1.74,3.22,3.22,0,0,1,1.88-.77,4,4,0,0,1,2,.38,3.58,3.58,0,0,1,1.3,1,3.29,3.29,0,0,1,.62,1.13l-.29.09a2.49,2.49,0,0,0-.2-.6,2.89,2.89,0,0,0-1.3-1.31,2.36,2.36,0,0,0-2.19.06,4.69,4.69,0,0,0-1.81,2.24A4,4,0,0,0,181,45.47ZM148.5,100.54v21.28h-1.2V100.54Zm-10.87,1.9a1.11,1.11,0,0,1-.37-.87,1.07,1.07,0,0,1,.35-.82,1.14,1.14,0,0,1,.85-.34,1.1,1.1,0,0,1,.84.34,1.07,1.07,0,0,1,.35.82,1.39,1.39,0,0,1-.09.54l-1.31,2.61h-.85l.75-2A1,1,0,0,1,137.63,102.44Zm-11.74-59.5.78,1.94-1.08.43-.77-1.94-2.07-5.19-1.1.43-2,.8-.1-.25,7.26-2.89.1.25-1.88.74-1.23.49Zm-2.41,3.13-1.13.55-1.19-1-1.09-1-2.61,1.31.18,3.1-.38.18-.52-8.6.21-.09Zm10.77,131.47a27.7,27.7,0,0,1,5.85-4.29c.19-.44.39-.9.58-1.38,1.31-2.85,1.94-4.44,2.06-4.75-1.07,1.24-2.05,1.68-2.94,1.31a1.41,1.41,0,0,1-1-1.31,3.65,3.65,0,0,1,.47-2,3,3,0,0,1,1.19-1.3.23.23,0,0,1,.29,0,.19.19,0,0,1,0,.26h0a4.15,4.15,0,0,0-1,1.83c-.33,1.08-.16,1.63.49,1.67a1.44,1.44,0,0,0,.55-.08,2.24,2.24,0,0,0,.66-.32c.19-.14.38-.3.56-.46a4,4,0,0,0,.52-.63,6,6,0,0,0,.43-.63c.09-.14.24-.38.42-.7s.29-.53.34-.6a.34.34,0,0,1,.46-.15l0,0c.2.09.28.22.21.41a73.62,73.62,0,0,1-3.13,8.1,20.52,20.52,0,0,1,10.6-2.06l-.07.07a.36.36,0,0,1,.28.18.29.29,0,0,1,0,.31.3.3,0,0,1-.28.15A22.6,22.6,0,0,0,140.61,174l-.54,1.22c-.86,1.88-1.5,3.31-1.95,4.26s-1.08,2.18-1.92,3.7a31.43,31.43,0,0,1-2.51,3.92,8.51,8.51,0,0,1-1.84,1.82,3.11,3.11,0,0,1-1,.47,1.18,1.18,0,0,1-1-.25A2.55,2.55,0,0,1,129,188Q127.54,184,134.25,177.54Zm43.36-17.79a5.28,5.28,0,0,1,5.23,5.34h0a5.23,5.23,0,0,1-5.11,5.34h-.12a5.83,5.83,0,0,1-3.48-1.19,5.43,5.43,0,0,1-1.81-4.26A5.28,5.28,0,0,1,177.61,159.75Zm13.86-108.3a4.07,4.07,0,0,1-4.72-3,3.89,3.89,0,0,1,.55-3.11,3.67,3.67,0,0,1,2.53-1.78,4.06,4.06,0,0,1,4.65,2.9,3.63,3.63,0,0,1-.5,3.1A3.82,3.82,0,0,1,191.47,51.45Zm16,4.52.16.17-3.36,8-.88-.91.64-1.44.63-1.39-2-2.14-2.87,1.21-.3-.3Zm3.33,4.12-1.36-1.66.21-.16,5,6-.21.17-1.29-1.56-.83-1-4.32,3.55-1.62,1.33-.73-.9,1.61-1.33L211.52,61Zm-2.16,36.4L205.35,99h-1.11l2.17-2.48ZM210,71.84l-.65-1,1.73-1.15,3.24-2.17,1.64-1.1.64,1-1.63,1.1-3.25,2.17Zm2.81,2.27a4,4,0,0,1,2-2.46,3.66,3.66,0,0,1,3.08-.28v0a3.63,3.63,0,0,1,2.23,1.9,3.75,3.75,0,0,1,.38,2.93,3.59,3.59,0,0,1-2,2.44,3.74,3.74,0,0,1-3.08.35A4.07,4.07,0,0,1,212.78,74.11ZM73.94,100.54v21.28h-1.2V100.54Zm-24.14,0h1.26l6.75,19.11,6.75-19.11h1.27l-7.65,21.28h-.73Zm8.05,46.81,4.5-14.48L75,141.27l-11.09-4.08Zm121,51.41A91.23,91.23,0,0,1,64.18,139.62h1.24a90,90,0,0,0,171.79-1.54l1.26-.06A91.25,91.25,0,0,1,178.84,198.76Zm61.49-76.94h-1.21V100.54h1.21Zm.4-30.6-12.94-7.91L239,87l5.62-10.39Z"/><path class="cls-1" d="M126.8,172.71H127a7.15,7.15,0,0,0,1.73-.62,25.51,25.51,0,0,0,3.59-2v0l.57-.39a14.1,14.1,0,0,0-5.85,2.31C126.41,172.51,126.32,172.73,126.8,172.71Z"/><path class="cls-1" d="M156.19,68.2c0-.1.17-.1.25-.14a.24.24,0,0,1,.13.09c.31.24.62.49.91.76.61.53,1.2,1.11,1.79,1.7,1.18,1.16,2.31,2.34,3.41,3.47,2.19,2.3,4.19,4.49,5.91,6.37,3.45,3.76,5.75,6.35,5.84,6.44a1.31,1.31,0,0,0,1.82-1.7c-.1-.09-2.51-2.57-6.14-6.19-1.82-1.82-3.94-3.91-6.24-6.11-1.15-1.11-2.27-2.23-3.58-3.35-.63-.57-1.27-1.13-1.93-1.68-.34-.27-.68-.53-1.08-.79a1.55,1.55,0,0,0-1-.32,2.22,2.22,0,0,0-.82.46c-1.49,1.44-3,2.89-4.37,4.32l.67.68C153.18,70.87,154.68,69.53,156.19,68.2Z"/><path class="cls-6" d="M156.19,68.2c0-.1.17-.1.25-.14a.24.24,0,0,1,.13.09c.31.24.62.49.91.76.61.53,1.2,1.11,1.79,1.7,1.18,1.16,2.31,2.34,3.41,3.47,2.19,2.3,4.19,4.49,5.91,6.37,3.45,3.76,5.75,6.35,5.84,6.44a1.31,1.31,0,0,0,1.82-1.7c-.1-.09-2.51-2.57-6.14-6.19-1.82-1.82-3.94-3.91-6.24-6.11-1.15-1.11-2.27-2.23-3.58-3.35-.63-.57-1.27-1.13-1.93-1.68-.34-.27-.68-.53-1.08-.79a1.55,1.55,0,0,0-1-.32,2.22,2.22,0,0,0-.82.46c-1.49,1.44-3,2.89-4.37,4.32l.67.68C153.18,70.87,154.68,69.53,156.19,68.2Z"/><path class="cls-1" d="M136.79,86.82s.15-.15.4-.43c-.25.25-.39.39-.4.37Z"/><path class="cls-7" d="M136.79,86.82s.15-.15.4-.43c-.25.25-.39.39-.4.37Z"/><path class="cls-1" d="M137.19,86.39c1.52-1.5,7.15-7.32,13.88-13.57l-.66-.61C143.92,78.82,138.65,84.78,137.19,86.39Z"/><path class="cls-8" d="M137.19,86.39c1.52-1.5,7.15-7.32,13.88-13.57l-.66-.61C143.92,78.82,138.65,84.78,137.19,86.39Z"/><path class="cls-1" d="M126.54,86.93a1.28,1.28,0,0,0,1.16,0c.1-.09,2.4-2.68,5.85-6.44,1.72-1.88,3.74-4.07,5.92-6.37,1.08-1.13,2.22-2.31,3.4-3.47.59-.59,1.19-1.17,1.79-1.7a12,12,0,0,1,.93-.76.34.34,0,0,1,.14-.08c.08,0,.19,0,.22.13,1.51,1.33,3,2.67,4.46,4l.66-.68c-1.41-1.43-2.88-2.88-4.37-4.32a2.19,2.19,0,0,0-.83-.46,1.45,1.45,0,0,0-1,.32,12.09,12.09,0,0,0-1.09.79c-.66.55-1.31,1.11-1.92,1.68-1.31,1.12-2.44,2.24-3.59,3.35-2.3,2.2-4.42,4.29-6.24,6.11-3.62,3.62-6,6.1-6.13,6.19A1.32,1.32,0,0,0,126.54,86.93Z"/><path class="cls-9" d="M126.54,86.93a1.28,1.28,0,0,0,1.16,0c.1-.09,2.4-2.68,5.85-6.44,1.72-1.88,3.74-4.07,5.92-6.37,1.08-1.13,2.22-2.31,3.4-3.47.59-.59,1.19-1.17,1.79-1.7a12,12,0,0,1,.93-.76.34.34,0,0,1,.14-.08c.08,0,.19,0,.22.13,1.51,1.33,3,2.67,4.46,4l.66-.68c-1.41-1.43-2.88-2.88-4.37-4.32a2.19,2.19,0,0,0-.83-.46,1.45,1.45,0,0,0-1,.32,12.09,12.09,0,0,0-1.09.79c-.66.55-1.31,1.11-1.92,1.68-1.31,1.12-2.44,2.24-3.59,3.35-2.3,2.2-4.42,4.29-6.24,6.11-3.62,3.62-6,6.1-6.13,6.19A1.32,1.32,0,0,0,126.54,86.93Z"/><path class="cls-1" d="M165,86.39c-1.44-1.6-6.71-7.57-13.21-14.18l-.67.61C157.81,79.08,163.45,84.9,165,86.39Z"/><path class="cls-10" d="M165,86.39c-1.44-1.6-6.71-7.57-13.21-14.18l-.67.61C157.81,79.08,163.45,84.9,165,86.39Z"/><path class="cls-1" d="M165.35,86.82v-.06s-.14-.12-.4-.37C165.2,86.67,165.34,86.82,165.35,86.82Z"/><path class="cls-11" d="M165.35,86.82v-.06s-.14-.12-.4-.37C165.2,86.67,165.34,86.82,165.35,86.82Z"/><path class="cls-1" d="M134.25,168.81a14.84,14.84,0,0,0-7.68,2.68,2.16,2.16,0,0,0-.92,1.18.69.69,0,0,0,.39.83,2.18,2.18,0,0,0,1.47,0,19.1,19.1,0,0,0,7.11-3.92,31.2,31.2,0,0,1,3.62-.08.3.3,0,0,0,.31-.17.36.36,0,0,0,0-.35.34.34,0,0,0-.31-.21l0-.08a22.73,22.73,0,0,0-2.61,0,10.74,10.74,0,0,0,1.13-1.3,8.55,8.55,0,0,0,1-1.61,5.48,5.48,0,0,0,.51-1.67,1.88,1.88,0,0,0-.38-1.43,2.71,2.71,0,0,0-1.58-1,8.37,8.37,0,0,0-2.91-.15c.68-.47,1.28-.89,1.82-1.3a17.55,17.55,0,0,0,1.63-1.48A6.44,6.44,0,0,0,138.1,157a4.18,4.18,0,0,0,.35-2,2.62,2.62,0,0,0-1.16-2,6.71,6.71,0,0,0-2.49-1.06,10.76,10.76,0,0,0-3.92,0,12.84,12.84,0,0,0-3.72,1.24,14.12,14.12,0,0,0-4.84,4.11,17.43,17.43,0,0,0-2.94,5.87.12.12,0,0,0,0,.14.24.24,0,0,0,.12,0c.1,0,.1-.08.1-.08A20.9,20.9,0,0,1,121,160.5a25.41,25.41,0,0,1,1.75-2.62,14,14,0,0,1,2.15-2.27,15.34,15.34,0,0,1,2.51-1.73,10.31,10.31,0,0,1,2.89-1,10.87,10.87,0,0,1,3.22-.17,5.44,5.44,0,0,1,.8.09l.83.18a4.27,4.27,0,0,1,.84.32,5.37,5.37,0,0,1,.73.43,2.28,2.28,0,0,1,.59.57,1.83,1.83,0,0,1,.3.77,2.64,2.64,0,0,1,0,1.31,4.12,4.12,0,0,1-.73,1.31,14.59,14.59,0,0,1-1.05,1.17,9.34,9.34,0,0,1-1.31,1.12l-1.3.87c-.3.21-.7.45-1.15.71l-1.15.69a32.74,32.74,0,0,0-3.81,1.5v-.08l.68-1.67c.35-.87.63-1.6.83-2.19a11.92,11.92,0,0,0,.44-1.76.21.21,0,0,0-.1-.24h0a.18.18,0,0,0-.26,0l-.14.19a.15.15,0,0,0,0,.16,10.76,10.76,0,0,0-.7,1.4c-.21.55-.45,1.1-.71,1.85s-.43,1.24-.54,1.48l-.52,1.31c-1.67.78-2.84,1.32-3.49,1.58a.41.41,0,0,0-.2.17.43.43,0,0,0-.07.25.45.45,0,0,0,0,.23.27.27,0,0,0,.17.16.32.32,0,0,0,.27,0c.9-.28,1.8-.6,2.71-1-.4,1.06-.71,2-.94,2.82h0a.29.29,0,0,0,.2.35l.05,0a.27.27,0,0,0,.33-.17c.41-.84.89-2,1.43-3.45a43.21,43.21,0,0,0,4.28-2.07,14.57,14.57,0,0,1,3.13-.61,5,5,0,0,1,1.09,0,8.51,8.51,0,0,1,1.13.14,1.81,1.81,0,0,1,.9.53,1.6,1.6,0,0,1,.41,1.07,4.69,4.69,0,0,1-1.46,2.89A14.56,14.56,0,0,1,134.25,168.81Zm-1.91,1.28v0a25.51,25.51,0,0,1-3.59,2,7.15,7.15,0,0,1-1.73.62h-.22c-.48,0-.39-.2.26-.7a14.1,14.1,0,0,1,5.85-2.31Z"/><path class="cls-12" d="M134.25,168.81a14.84,14.84,0,0,0-7.68,2.68,2.16,2.16,0,0,0-.92,1.18.69.69,0,0,0,.39.83,2.18,2.18,0,0,0,1.47,0,19.1,19.1,0,0,0,7.11-3.92,31.2,31.2,0,0,1,3.62-.08.3.3,0,0,0,.31-.17.36.36,0,0,0,0-.35.34.34,0,0,0-.31-.21l0-.08a22.73,22.73,0,0,0-2.61,0,10.74,10.74,0,0,0,1.13-1.3,8.55,8.55,0,0,0,1-1.61,5.48,5.48,0,0,0,.51-1.67,1.88,1.88,0,0,0-.38-1.43,2.71,2.71,0,0,0-1.58-1,8.37,8.37,0,0,0-2.91-.15c.68-.47,1.28-.89,1.82-1.3a17.55,17.55,0,0,0,1.63-1.48A6.44,6.44,0,0,0,138.1,157a4.18,4.18,0,0,0,.35-2,2.62,2.62,0,0,0-1.16-2,6.71,6.71,0,0,0-2.49-1.06,10.76,10.76,0,0,0-3.92,0,12.84,12.84,0,0,0-3.72,1.24,14.12,14.12,0,0,0-4.84,4.11,17.43,17.43,0,0,0-2.94,5.87.12.12,0,0,0,0,.14.24.24,0,0,0,.12,0c.1,0,.1-.08.1-.08A20.9,20.9,0,0,1,121,160.5a25.41,25.41,0,0,1,1.75-2.62,14,14,0,0,1,2.15-2.27,15.34,15.34,0,0,1,2.51-1.73,10.31,10.31,0,0,1,2.89-1,10.87,10.87,0,0,1,3.22-.17,5.44,5.44,0,0,1,.8.09l.83.18a4.27,4.27,0,0,1,.84.32,5.37,5.37,0,0,1,.73.43,2.28,2.28,0,0,1,.59.57,1.83,1.83,0,0,1,.3.77,2.64,2.64,0,0,1,0,1.31,4.12,4.12,0,0,1-.73,1.31,14.59,14.59,0,0,1-1.05,1.17,9.34,9.34,0,0,1-1.31,1.12l-1.3.87c-.3.21-.7.45-1.15.71l-1.15.69a32.74,32.74,0,0,0-3.81,1.5v-.08l.68-1.67c.35-.87.63-1.6.83-2.19a11.92,11.92,0,0,0,.44-1.76.21.21,0,0,0-.1-.24h0a.18.18,0,0,0-.26,0l-.14.19a.15.15,0,0,0,0,.16,10.76,10.76,0,0,0-.7,1.4c-.21.55-.45,1.1-.71,1.85s-.43,1.24-.54,1.48l-.52,1.31c-1.67.78-2.84,1.32-3.49,1.58a.41.41,0,0,0-.2.17.43.43,0,0,0-.07.25.45.45,0,0,0,0,.23.27.27,0,0,0,.17.16.32.32,0,0,0,.27,0c.9-.28,1.8-.6,2.71-1-.4,1.06-.71,2-.94,2.82h0a.29.29,0,0,0,.2.35l.05,0a.27.27,0,0,0,.33-.17c.41-.84.89-2,1.43-3.45a43.21,43.21,0,0,0,4.28-2.07,14.57,14.57,0,0,1,3.13-.61,5,5,0,0,1,1.09,0,8.51,8.51,0,0,1,1.13.14,1.81,1.81,0,0,1,.9.53,1.6,1.6,0,0,1,.41,1.07,4.69,4.69,0,0,1-1.46,2.89A14.56,14.56,0,0,1,134.25,168.81Zm-1.91,1.28v0a25.51,25.51,0,0,1-3.59,2,7.15,7.15,0,0,1-1.73.62h-.22c-.48,0-.39-.2.26-.7a14.1,14.1,0,0,1,5.85-2.31Z"/><path class="cls-1" d="M129.84,189.15a1.18,1.18,0,0,0,1,.25,3.11,3.11,0,0,0,1-.47,8.51,8.51,0,0,0,1.84-1.82,31.43,31.43,0,0,0,2.51-3.92c.84-1.52,1.48-2.75,1.92-3.7s1.09-2.38,1.95-4.26l.54-1.22a22.6,22.6,0,0,1,11.21-2.78.3.3,0,0,0,.28-.15.29.29,0,0,0,0-.31.36.36,0,0,0-.28-.18l.07-.07a20.52,20.52,0,0,0-10.6,2.06,73.62,73.62,0,0,0,3.13-8.1c.07-.19,0-.32-.21-.41l0,0a.34.34,0,0,0-.46.15c0,.07-.16.27-.34.6s-.33.56-.42.7a6,6,0,0,1-.43.63,4,4,0,0,1-.52.63c-.18.16-.37.32-.56.46a2.24,2.24,0,0,1-.66.32,1.44,1.44,0,0,1-.55.08c-.65,0-.82-.59-.49-1.67a4.15,4.15,0,0,1,1-1.83h0a.19.19,0,0,0,0-.26.23.23,0,0,0-.29,0,3,3,0,0,0-1.19,1.3,3.65,3.65,0,0,0-.47,2,1.41,1.41,0,0,0,1,1.31c.89.37,1.87-.07,2.94-1.31-.12.31-.75,1.9-2.06,4.75-.19.48-.39.94-.58,1.38a27.7,27.7,0,0,0-5.85,4.29Q127.53,184,129,188A2.55,2.55,0,0,0,129.84,189.15Zm0-3.12a7.72,7.72,0,0,1,.3-1.17,17.09,17.09,0,0,1,3.51-5.37,25.44,25.44,0,0,1,5.84-4.85c-1.49,3.27-3,6.13-4.29,8.5l-.1,0v.21l-.07.14c-.33.6-.63,1.17-.9,1.56s-.65,1-1.15,1.7a5.37,5.37,0,0,1-1.4,1.49,1,1,0,0,1-1.16.13,1.33,1.33,0,0,1-.58-1A4.05,4.05,0,0,1,129.82,186Z"/><path class="cls-13" d="M129.84,189.15a1.18,1.18,0,0,0,1,.25,3.11,3.11,0,0,0,1-.47,8.51,8.51,0,0,0,1.84-1.82,31.43,31.43,0,0,0,2.51-3.92c.84-1.52,1.48-2.75,1.92-3.7s1.09-2.38,1.95-4.26l.54-1.22a22.6,22.6,0,0,1,11.21-2.78.3.3,0,0,0,.28-.15.29.29,0,0,0,0-.31.36.36,0,0,0-.28-.18l.07-.07a20.52,20.52,0,0,0-10.6,2.06,73.62,73.62,0,0,0,3.13-8.1c.07-.19,0-.32-.21-.41l0,0a.34.34,0,0,0-.46.15c0,.07-.16.27-.34.6s-.33.56-.42.7a6,6,0,0,1-.43.63,4,4,0,0,1-.52.63c-.18.16-.37.32-.56.46a2.24,2.24,0,0,1-.66.32,1.44,1.44,0,0,1-.55.08c-.65,0-.82-.59-.49-1.67a4.15,4.15,0,0,1,1-1.83h0a.19.19,0,0,0,0-.26.23.23,0,0,0-.29,0,3,3,0,0,0-1.19,1.3,3.65,3.65,0,0,0-.47,2,1.41,1.41,0,0,0,1,1.31c.89.37,1.87-.07,2.94-1.31-.12.31-.75,1.9-2.06,4.75-.19.48-.39.94-.58,1.38a27.7,27.7,0,0,0-5.85,4.29Q127.53,184,129,188A2.55,2.55,0,0,0,129.84,189.15Zm0-3.12a7.72,7.72,0,0,1,.3-1.17,17.09,17.09,0,0,1,3.51-5.37,25.44,25.44,0,0,1,5.84-4.85c-1.49,3.27-3,6.13-4.29,8.5l-.1,0v.21l-.07.14c-.33.6-.63,1.17-.9,1.56s-.65,1-1.15,1.7a5.37,5.37,0,0,1-1.4,1.49,1,1,0,0,1-1.16.13,1.33,1.33,0,0,1-.58-1A4.05,4.05,0,0,1,129.82,186Z"/><path class="cls-4" d="M157.13,154a5.67,5.67,0,0,1,4.68,2.31,8.82,8.82,0,0,1,1.3,3.61h.53l-.15-6.24H163a6.51,6.51,0,0,1-.64,2.12,7.37,7.37,0,0,0-5.57-2.42c-4.76,0-8,3.6-8,8.83a7.45,7.45,0,0,0,0,.82,7.74,7.74,0,0,0,8.09,7.37,7.11,7.11,0,0,0,5.54-2.43,4.12,4.12,0,0,1,.78,1.73h.53v-5.81l-.5.07a6.92,6.92,0,0,1-2.61,4.8,6.45,6.45,0,0,1-3.27,1c-3.53,0-5.79-3-5.79-7.62C151.47,157,153.59,154,157.13,154Z"/><path class="cls-4" d="M166,169.46h-.27V170h5.32v-.58h-.29c-1.48,0-1.48-.2-1.48-2.82l-.07-13.28H169a10.31,10.31,0,0,1-3.17.51v.58H166c1.28,0,1.47.41,1.47,2.36V167.4a5.08,5.08,0,0,1,0,.78,1.4,1.4,0,0,1-.14.83C167.1,169.35,166.73,169.46,166,169.46Z"/><path class="cls-4" d="M174.09,169.24a5.83,5.83,0,0,0,3.48,1.19h.12a5.23,5.23,0,0,0,5.11-5.34h0a5.28,5.28,0,1,0-10.56-.11A5.43,5.43,0,0,0,174.09,169.24Zm3.48-9c2.21,0,3.26,1.64,3.26,4.88s-1,4.72-3.29,4.72-3.25-1.47-3.25-4.79S175.36,160.28,177.57,160.28Z"/><polygon class="cls-1" points="227.79 83.31 240.73 91.22 244.65 76.58 239.03 86.97 227.79 83.31"/><polygon class="cls-14" points="227.79 83.31 240.73 91.22 244.65 76.58 239.03 86.97 227.79 83.31"/><polygon class="cls-1" points="62.35 132.87 57.85 147.35 63.89 137.19 74.98 141.27 62.35 132.87"/><polygon class="cls-15" points="62.35 132.87 57.85 147.35 63.89 137.19 74.98 141.27 62.35 132.87"/><path class="cls-1" d="M177.24,25.75a90,90,0,0,1,59.48,58.39H238A91.22,91.22,0,0,0,63.68,85.73h1.24A90,90,0,0,1,177.24,25.75Z"/><path class="cls-16" d="M177.24,25.75a90,90,0,0,1,59.48,58.39H238A91.22,91.22,0,0,0,63.68,85.73h1.24A90,90,0,0,1,177.24,25.75Z"/><path class="cls-1" d="M124.88,198a90,90,0,0,1-59.46-58.4H64.18A91.22,91.22,0,0,0,238.47,138l-1.26.06A90,90,0,0,1,124.88,198Z"/><path class="cls-17" d="M124.88,198a90,90,0,0,1-59.46-58.4H64.18A91.22,91.22,0,0,0,238.47,138l-1.26.06A90,90,0,0,1,124.88,198Z"/><path class="cls-4" d="M80.75,86.35a3.84,3.84,0,0,0,3.15,0,4.05,4.05,0,0,0,2.16-5.13A3.77,3.77,0,0,0,83.85,79a3.63,3.63,0,0,0-3.15,0,3.81,3.81,0,0,0-2,2.13,3.67,3.67,0,0,0,0,2.94l-.06,0A3.62,3.62,0,0,0,80.75,86.35Zm-1.83-5A2.39,2.39,0,0,1,80.6,79.8a4.24,4.24,0,0,1,2.75.49,4.34,4.34,0,0,1,2.3,1.64,2.25,2.25,0,0,1,.11,2.15,2.21,2.21,0,0,1-1.62,1.47,4.57,4.57,0,0,1-2.84-.39,4.41,4.41,0,0,1-2.25-1.76A2.11,2.11,0,0,1,78.92,81.31Z"/><path class="cls-4" d="M86.75,72.49a1.69,1.69,0,0,0-.85-1.15,1.6,1.6,0,0,0-1.21-.18,2.36,2.36,0,0,0-1.13.68,6.64,6.64,0,0,0-1.07,1.49l-.86,1.53,1.74,1,3.33,1.91,1.83,1,.56-1-1.83-1-1.45-.82.17-.3c1.07-1.88,4.63-1.22,5-1.11l.45-.8a13.31,13.31,0,0,0-2.89-.13,3.75,3.75,0,0,0-2,.72A2.88,2.88,0,0,0,86.75,72.49Zm-.48,1.78a2.68,2.68,0,0,1-.22.73l-.45.81L82.5,74l.25-.44c.47-.73.89-1.23,1.31-1.31a2,2,0,0,1,1.31.29,2.28,2.28,0,0,1,.62.49,1.2,1.2,0,0,1,.28.55A1.47,1.47,0,0,1,86.27,74.27Z"/><path class="cls-4" d="M215.4,79a3.74,3.74,0,0,0,3.08-.35,3.59,3.59,0,0,0,2-2.44,3.75,3.75,0,0,0-.38-2.93,3.63,3.63,0,0,0-2.23-1.9v0a3.66,3.66,0,0,0-3.08.28,4,4,0,0,0-2,2.46A4.07,4.07,0,0,0,215.4,79Zm-2.13-4.21v0a4.33,4.33,0,0,1,2.09-2,4.44,4.44,0,0,1,2.77-.66,2.1,2.1,0,0,1,1.71,1.22,2.32,2.32,0,0,1,.13,2.24,4.31,4.31,0,0,1-2.11,1.84,4.25,4.25,0,0,1-2.74.76A2.23,2.23,0,0,1,213.39,77,2.19,2.19,0,0,1,213.27,74.8Z"/><polygon class="cls-4" points="224.03 85.59 219.69 87.25 223.7 80.83 223.27 79.7 221.49 80.39 217.65 81.86 216.03 82.48 216.12 82.71 217.74 82.1 222.77 80.16 217.95 88.04 218.03 88.24 224.06 85.93 225.45 85.39 225.33 85.08 224.03 85.59"/><polygon class="cls-18" points="1.2 100.54 0 100.54 0 121.82 9.32 121.82 9.32 120.62 1.2 120.62 1.2 100.54"/><path class="cls-18" d="M23,100.54l-7.84,21.28h1.3l3.47-9.36h7.32l3.4,9.36h1.3l-7.71-21.28Zm-2.63,10.73,3.24-8.93,3.24,8.93Z"/><polygon class="cls-18" points="65.83 100.54 64.56 100.54 57.81 119.65 51.06 100.54 49.8 100.54 57.45 121.82 58.18 121.82 65.83 100.54"/><rect class="cls-18" x="72.74" y="100.54" width="1.2" height="21.28"/><polygon class="cls-18" points="93.2 101.74 93.2 100.54 82.56 100.54 82.56 121.82 93.2 121.82 93.2 120.62 83.76 120.62 83.76 111.78 93.2 111.78 93.2 110.58 83.76 110.58 83.76 101.74 93.2 101.74"/><path class="cls-18" d="M126.48,118.91a10.93,10.93,0,0,0,0-15.43,11.1,11.1,0,0,0-8.15-2.94h-3.92v21.28h3.92A11.12,11.12,0,0,0,126.48,118.91Zm-10.89,1.68V101.85l2.73-.11a10,10,0,0,1,7.24,2.54,9.73,9.73,0,0,1,0,13.7,10,10,0,0,1-7.24,2.61Z"/><path class="cls-18" d="M138.25,104.72l1.31-2.61a1.39,1.39,0,0,0,.09-.54,1.07,1.07,0,0,0-.35-.82,1.1,1.1,0,0,0-.84-.34,1.14,1.14,0,0,0-.85.34,1.07,1.07,0,0,0-.35.82,1.11,1.11,0,0,0,.37.87,1,1,0,0,0,.52.3l-.75,2Z"/><rect class="cls-18" x="147.3" y="100.54" width="1.2" height="21.28"/><polygon class="cls-18" points="173.94 121.82 173.94 100.54 172.73 100.54 172.73 120.36 158.59 100.54 157.06 100.54 157.06 121.82 158.26 121.82 158.26 102.46 172.08 121.82 173.94 121.82"/><polygon class="cls-18" points="187.73 121.82 187.73 101.74 193.11 101.74 193.11 100.54 181.15 100.54 181.15 101.74 186.54 101.74 186.54 121.82 187.73 121.82"/><polygon class="cls-18" points="211.01 101.72 211.01 100.54 200.37 100.54 200.37 121.79 211.01 121.79 211.01 120.59 201.57 120.59 201.57 111.75 211.01 111.75 211.01 110.55 201.57 110.55 201.57 101.72 211.01 101.72"/><polygon class="cls-18" points="204.24 98.97 205.35 98.97 208.62 96.49 206.41 96.49 204.24 98.97"/><path class="cls-18" d="M229.24,102.57a7.14,7.14,0,0,0-4.14-2h-5.58v21.28h1.2v-7.37h3.92l4.8,7.37h1.46l-4.9-7.57a7,7,0,0,0,3.24-11.68Zm-4.91,10.66h-3.61V101.76h3.61a5.74,5.74,0,1,1,0,11.47Z"/><rect class="cls-18" x="239.12" y="100.54" width="1.2" height="21.28"/><polygon class="cls-18" points="250.14 111.78 259.58 111.78 259.58 110.58 250.14 110.58 250.14 101.74 259.58 101.74 259.58 100.54 248.94 100.54 248.94 121.82 259.19 121.82 259.58 121.82 259.58 120.62 259.32 120.62 250.14 120.62 250.14 111.78"/><path class="cls-18" d="M280.75,115.06a5.75,5.75,0,0,1-11.49,0V100.54H268v14.57A7,7,0,0,0,279.9,120a7,7,0,0,0,2-4.19V100.54h-1.2Z"/><path class="cls-18" d="M300.1,112.46A7,7,0,0,0,296,100.54h-5.58v21.28h1.2v-7.37h3.92l4.8,7.37h1.48l-4.92-7.57A7.1,7.1,0,0,0,300.1,112.46Zm-4.85.77h-3.61V101.76h3.62a5.74,5.74,0,1,1,0,11.47Z"/></g></g></svg>