<svg xmlns="http://www.w3.org/2000/svg" xmlns:xlink="http://www.w3.org/1999/xlink" viewBox="0 0 513 513"><defs><style>.cls-1{fill:#2e3192;}.cls-2{fill:#fff200;}.cls-3{fill:url(#linear-gradient);}.cls-4{fill:url(#linear-gradient-3);}.cls-5{fill:url(#linear-gradient-5);}.cls-6{fill:url(#linear-gradient-7);}.cls-7{fill:url(#linear-gradient-9);}.cls-8{fill:url(#linear-gradient-10);}</style><linearGradient id="linear-gradient" x1="-265.23" y1="316.15" x2="-250.87" y2="316.15" gradientTransform="translate(6722.8 -7632.37) scale(24.85)" gradientUnits="userSpaceOnUse"><stop offset="0" stop-color="#c08f2e"/><stop offset="0" stop-color="#c2902f"/><stop offset="0.13" stop-color="#dbb64e"/><stop offset="0.25" stop-color="#eed364"/><stop offset="0.35" stop-color="#f8e372"/><stop offset="0.43" stop-color="#fbe877"/><stop offset="0.63" stop-color="#fbe877"/><stop offset="0.68" stop-color="#f8e372"/><stop offset="0.75" stop-color="#edd261"/><stop offset="0.84" stop-color="#d8b545"/><stop offset="0.87" stop-color="#cea634"/><stop offset="1" stop-color="#b28f2f"/></linearGradient><linearGradient id="linear-gradient-3" x1="-265.23" y1="317.06" x2="-250.87" y2="317.06" xlink:href="#linear-gradient"/><linearGradient id="linear-gradient-5" x1="-268.99" y1="317.06" x2="-254.62" y2="317.06" gradientTransform="translate(6715.82 -7632.4) scale(24.85)" xlink:href="#linear-gradient"/><linearGradient id="linear-gradient-7" x1="-268.99" y1="316.15" x2="-254.62" y2="316.15" gradientTransform="translate(6715.82 -7632.4) scale(24.85)" xlink:href="#linear-gradient"/><linearGradient id="linear-gradient-9" x1="-265.23" y1="314.42" x2="-250.87" y2="314.42" xlink:href="#linear-gradient"/><linearGradient id="linear-gradient-10" x1="-268.99" y1="314.42" x2="-254.62" y2="314.42" gradientTransform="translate(6715.82 -7632.4) scale(24.85)" xlink:href="#linear-gradient"/></defs><title>faviicon</title><g id="Layer_2" data-name="Layer 2"><g id="Layer_1-2" data-name="Layer 1"><path class="cls-1" d="M256.5,11.07c-135.33,0-245.43,110.1-245.43,245.43S121.17,501.93,256.5,501.93,501.93,391.83,501.93,256.5,391.83,11.07,256.5,11.07ZM30,298.65c.84-.88,22.6-23.15,55.24-55.68,16.3-16.3,35.35-35.13,56.05-54.95,10.33-9.93,21.1-20.11,32.31-30.18,5.6-5.06,11.35-10.08,17.4-15a108.47,108.47,0,0,1,9.63-7.32l.08,0a14.41,14.41,0,0,1,7.76-2.86H210a18.28,18.28,0,0,1,7.22,4.18c13.45,12.89,26.65,25.91,39.38,38.75,12.72-12.82,25.91-25.84,39.34-38.71a18.73,18.73,0,0,1,7.33-4.22h.66a14.23,14.23,0,0,1,8.43,2.79,110.52,110.52,0,0,1,9.67,7.32c6,4.91,11.76,9.93,17.4,15,11.21,10.07,22,20.25,32.34,30.18,20.7,19.82,39.71,38.65,56,55,32.49,32.64,54.47,54.91,55.24,55.79,3.34,3.59,2.35,9.93-2.16,14.11s-10.84,4.83-14.14,1.17c-.84-.88-21.54-24.11-52.53-58-15.53-16.92-33.63-36.56-53.26-57.22-9.82-10.33-20-20.88-30.59-31.32-5.2-5.24-10.7-10.4-16.19-15.31a103.16,103.16,0,0,0-8.25-6.78,1.85,1.85,0,0,0-1.13-.84c-.7.33-1.83.37-2.2,1.28-13.56,11.88-27,24-40,36C331,251.07,384.27,313,385,312.65c-.33.72-57.61-59.75-128.43-125.41C185.69,253,128.35,313.48,128,312.76c.72.39,54-61.62,122.5-131.1-13-12-26.48-24.14-40.08-36.06-.37-.91-1.5-.95-2.2-1.28a1.85,1.85,0,0,0-1.13.84c-2.71,2-5.54,4.32-8.28,6.78-5.5,4.91-10.88,10.07-16.16,15.31-10.55,10.44-20.77,21-30.59,31.32-19.63,20.77-37.73,40.3-53.26,57.33-31,33.92-51.65,57.15-52.53,58-3.15,3.55-9.6,3-14.14-1.17S26.65,302.32,30,298.65Z"/><path class="cls-1" d="M256.5,0C114.84,0,0,114.84,0,256.5S114.84,513,256.5,513,513,398.16,513,256.5,398.16,0,256.5,0ZM432.87,432.87A249.42,249.42,0,1,1,80.13,80.13,249.42,249.42,0,1,1,432.87,432.87Z"/><path class="cls-2" d="M432.87,80.13A249.42,249.42,0,1,0,80.13,432.87,249.42,249.42,0,1,0,432.87,80.13ZM256.5,501.93c-135.33,0-245.43-110.1-245.43-245.43S121.17,11.07,256.5,11.07,501.93,121.17,501.93,256.5,391.83,501.93,256.5,501.93Z"/><path class="cls-1" d="M302.57,145.71c.37-.91,1.5-1,2.2-1.28a1.85,1.85,0,0,1,1.13.84,103.16,103.16,0,0,1,8.25,6.78c5.49,4.91,11,10.07,16.19,15.31,10.55,10.44,20.77,21,30.59,31.32,19.63,20.66,37.73,40.3,53.26,57.22,31,33.92,51.69,57.15,52.53,58,3.3,3.66,9.64,3,14.14-1.17s5.5-10.52,2.16-14.11c-.77-.88-22.75-23.15-55.24-55.79-16.34-16.3-35.35-35.13-56-55-10.36-9.93-21.13-20.11-32.34-30.18-5.64-5.06-11.36-10.08-17.4-15a110.52,110.52,0,0,0-9.67-7.32,14.23,14.23,0,0,0-8.43-2.79h-.66a18.73,18.73,0,0,0-7.33,4.22c-13.43,12.87-26.62,25.89-39.34,38.71q3,3.06,6,6.11C275.61,169.69,289,157.59,302.57,145.71Z"/><path class="cls-3" d="M302.57,145.71c.37-.91,1.5-1,2.2-1.28a1.85,1.85,0,0,1,1.13.84,103.16,103.16,0,0,1,8.25,6.78c5.49,4.91,11,10.07,16.19,15.31,10.55,10.44,20.77,21,30.59,31.32,19.63,20.66,37.73,40.3,53.26,57.22,31,33.92,51.69,57.15,52.53,58,3.3,3.66,9.64,3,14.14-1.17s5.5-10.52,2.16-14.11c-.77-.88-22.75-23.15-55.24-55.79-16.34-16.3-35.35-35.13-56-55-10.36-9.93-21.13-20.11-32.34-30.18-5.64-5.06-11.36-10.08-17.4-15a110.52,110.52,0,0,0-9.67-7.32,14.23,14.23,0,0,0-8.43-2.79h-.66a18.73,18.73,0,0,0-7.33,4.22c-13.43,12.87-26.62,25.89-39.34,38.71q3,3.06,6,6.11C275.61,169.69,289,157.59,302.57,145.71Z"/><path class="cls-3" d="M302.57,145.71c.37-.91,1.5-1,2.2-1.28a1.85,1.85,0,0,1,1.13.84,103.16,103.16,0,0,1,8.25,6.78c5.49,4.91,11,10.07,16.19,15.31,10.55,10.44,20.77,21,30.59,31.32,19.63,20.66,37.73,40.3,53.26,57.22,31,33.92,51.69,57.15,52.53,58,3.3,3.66,9.64,3,14.14-1.17s5.5-10.52,2.16-14.11c-.77-.88-22.75-23.15-55.24-55.79-16.34-16.3-35.35-35.13-56-55-10.36-9.93-21.13-20.11-32.34-30.18-5.64-5.06-11.36-10.08-17.4-15a110.52,110.52,0,0,0-9.67-7.32,14.23,14.23,0,0,0-8.43-2.79h-.66a18.73,18.73,0,0,0-7.33,4.22c-13.43,12.87-26.62,25.89-39.34,38.71q3,3.06,6,6.11C275.61,169.69,289,157.59,302.57,145.71Z"/><path class="cls-1" d="M128,312.76c.33.72,57.67-59.81,128.54-125.52-2-1.85-4-3.72-6-5.58C182.05,251.14,128.74,313.15,128,312.76Z"/><path class="cls-4" d="M128,312.76c.33.72,57.67-59.81,128.54-125.52-2-1.85-4-3.72-6-5.58C182.05,251.14,128.74,313.15,128,312.76Z"/><path class="cls-4" d="M128,312.76c.33.72,57.67-59.81,128.54-125.52-2-1.85-4-3.72-6-5.58C182.05,251.14,128.74,313.15,128,312.76Z"/><path class="cls-1" d="M385,312.65c-.72.39-54-61.58-122.39-131l-6,5.57C327.38,252.9,384.66,313.37,385,312.65Z"/><path class="cls-5" d="M385,312.65c-.72.39-54-61.58-122.39-131l-6,5.57C327.38,252.9,384.66,313.37,385,312.65Z"/><path class="cls-5" d="M385,312.65c-.72.39-54-61.58-122.39-131l-6,5.57C327.38,252.9,384.66,313.37,385,312.65Z"/><path class="cls-1" d="M46.29,313.93c.88-.88,21.5-24.11,52.53-58,15.53-17,33.63-36.56,53.26-57.33,9.82-10.33,20-20.88,30.59-31.32,5.28-5.24,10.66-10.4,16.16-15.31,2.74-2.46,5.57-4.8,8.28-6.78a1.85,1.85,0,0,1,1.13-.84c.7.33,1.83.37,2.2,1.28,13.6,11.92,27,24.05,40.08,36.06q3-3,6-6.1c-12.73-12.84-25.93-25.86-39.38-38.75a18.28,18.28,0,0,0-7.22-4.18h-1.5a14.41,14.41,0,0,0-7.76,2.86l-.08,0a108.47,108.47,0,0,0-9.63,7.32c-6.05,4.91-11.8,9.93-17.4,15-11.21,10.07-22,20.25-32.31,30.18-20.7,19.82-39.75,38.65-56,54.95C52.59,275.5,30.83,297.77,30,298.65c-3.34,3.67-2.38,9.89,2.16,14.11S43.14,317.48,46.29,313.93Z"/><path class="cls-6" d="M46.29,313.93c.88-.88,21.5-24.11,52.53-58,15.53-17,33.63-36.56,53.26-57.33,9.82-10.33,20-20.88,30.59-31.32,5.28-5.24,10.66-10.4,16.16-15.31,2.74-2.46,5.57-4.8,8.28-6.78a1.85,1.85,0,0,1,1.13-.84c.7.33,1.83.37,2.2,1.28,13.6,11.92,27,24.05,40.08,36.06q3-3,6-6.1c-12.73-12.84-25.93-25.86-39.38-38.75a18.28,18.28,0,0,0-7.22-4.18h-1.5a14.41,14.41,0,0,0-7.76,2.86l-.08,0a108.47,108.47,0,0,0-9.63,7.32c-6.05,4.91-11.8,9.93-17.4,15-11.21,10.07-22,20.25-32.31,30.18-20.7,19.82-39.75,38.65-56,54.95C52.59,275.5,30.83,297.77,30,298.65c-3.34,3.67-2.38,9.89,2.16,14.11S43.14,317.48,46.29,313.93Z"/><path class="cls-6" d="M46.29,313.93c.88-.88,21.5-24.11,52.53-58,15.53-17,33.63-36.56,53.26-57.33,9.82-10.33,20-20.88,30.59-31.32,5.28-5.24,10.66-10.4,16.16-15.31,2.74-2.46,5.57-4.8,8.28-6.78a1.85,1.85,0,0,1,1.13-.84c.7.33,1.83.37,2.2,1.28,13.6,11.92,27,24.05,40.08,36.06q3-3,6-6.1c-12.73-12.84-25.93-25.86-39.38-38.75a18.28,18.28,0,0,0-7.22-4.18h-1.5a14.41,14.41,0,0,0-7.76,2.86l-.08,0a108.47,108.47,0,0,0-9.63,7.32c-6.05,4.91-11.8,9.93-17.4,15-11.21,10.07-22,20.25-32.31,30.18-20.7,19.82-39.75,38.65-56,54.95C52.59,275.5,30.83,297.77,30,298.65c-3.34,3.67-2.38,9.89,2.16,14.11S43.14,317.48,46.29,313.93Z"/><path class="cls-1" d="M256.56,187.24l6-5.57q-3-3-6-6.11-3,3.06-6,6.1C252.55,183.52,254.56,185.39,256.56,187.24Z"/><path class="cls-7" d="M256.56,187.24l6-5.57q-3-3-6-6.11-3,3.06-6,6.1C252.55,183.52,254.56,185.39,256.56,187.24Z"/><path class="cls-8" d="M256.56,187.24l6-5.57q-3-3-6-6.11-3,3.06-6,6.1C252.55,183.52,254.56,185.39,256.56,187.24Z"/><path class="cls-7" d="M256.56,187.24l6-5.57q-3-3-6-6.11-3,3.06-6,6.1C252.55,183.52,254.56,185.39,256.56,187.24Z"/><path class="cls-8" d="M256.56,187.24l6-5.57q-3-3-6-6.11-3,3.06-6,6.1C252.55,183.52,254.56,185.39,256.56,187.24Z"/></g></g></svg>