<svg xmlns="http://www.w3.org/2000/svg" xmlns:xlink="http://www.w3.org/1999/xlink" width="32px" height="32px" viewBox="0 0 125.48 50.46"><defs><style>.cls-1{fill:none;}.cls-2{clip-path:url(#clip-path);}.cls-3{fill:url(#linear-gradient);}.cls-4{clip-path:url(#clip-path-2);}.cls-5{fill:url(#linear-gradient-2);}</style><clipPath id="clip-path" transform="translate(0.37 0)"><path class="cls-1" d="M75.13,0a5.13,5.13,0,0,0-2,1.15C48.89,24.38,27.54,49.3,27.3,49.17c.11.24,23-24,47.65-45.6.1-.25.41-.26.6-.35a.5.5,0,0,1,.31.23A28.17,28.17,0,0,1,78.11,5.3c1.5,1.34,3,2.75,4.42,4.18,2.88,2.85,5.67,5.73,8.35,8.55,5.36,5.64,10.3,11,14.54,15.62,8.46,9.26,14.11,15.6,14.34,15.84.9,1,2.63.82,3.86-.32s1.5-2.87.59-3.85C124,45.08,118,39,109.13,30.09c-4.46-4.45-9.65-9.59-15.3-15C91,12.38,88.06,9.6,85,6.85c-1.54-1.38-3.1-2.75-4.75-4.09a29.71,29.71,0,0,0-2.64-2A3.88,3.88,0,0,0,75.31,0h-.18"/></clipPath><linearGradient id="linear-gradient" x1="-231.7" y1="356.24" x2="-230.7" y2="356.24" gradientTransform="matrix(97.45, 0, 0, -97.45, 22607.73, 34742.08)" gradientUnits="userSpaceOnUse"><stop offset="0" stop-color="#c18f2e"/><stop offset="0" stop-color="#c2902f"/><stop offset="0.13" stop-color="#dbb64e"/><stop offset="0.25" stop-color="#edd264"/><stop offset="0.35" stop-color="#f8e372"/><stop offset="0.43" stop-color="#fce977"/><stop offset="0.63" stop-color="#fce977"/><stop offset="0.68" stop-color="#f8e371"/><stop offset="0.75" stop-color="#ecd160"/><stop offset="0.84" stop-color="#d8b544"/><stop offset="0.87" stop-color="#cea635"/><stop offset="1" stop-color="#b28f2f"/></linearGradient><clipPath id="clip-path-2" transform="translate(0.37 0)"><path class="cls-1" d="M47.12.79a29.53,29.53,0,0,0-2.63,2c-1.65,1.34-3.22,2.71-4.75,4.09-3.06,2.75-6,5.53-8.82,8.24-5.65,5.41-10.85,10.55-15.3,15C6.71,39,.77,45.08.54,45.32c-.91,1-.65,2.7.59,3.85s3,1.29,3.86.32c.24-.24,5.87-6.58,14.34-15.84C23.57,29,28.51,23.67,33.87,18c2.68-2.82,5.47-5.7,8.35-8.55,1.44-1.43,2.91-2.84,4.41-4.18.75-.67,1.52-1.31,2.26-1.85a.5.5,0,0,1,.31-.23c.19.09.5.1.6.35,24.65,21.6,47.54,45.84,47.65,45.6-.24.13-21.59-24.79-45.81-48a5,5,0,0,0-2-1.15h-.18a3.92,3.92,0,0,0-2.32.79"/></clipPath><linearGradient id="linear-gradient-2" x1="-231.7" y1="356.24" x2="-230.7" y2="356.24" gradientTransform="matrix(97.45, 0, 0, -97.45, 22580.36, 34741.98)" xlink:href="#linear-gradient"/></defs><title>toits-lvi</title><g id="Layer_2" data-name="Layer 2"><g id="Layer_1-2" data-name="Layer 1"><g class="cls-2"><rect class="cls-3" x="27.66" width="97.82" height="50.46"/></g><g class="cls-4"><rect class="cls-5" width="97.82" height="50.46"/></g><g class="cls-2"><rect class="cls-3" x="27.66" width="97.82" height="50.46"/></g><g class="cls-4"><rect class="cls-5" width="97.82" height="50.46"/></g></g></g></svg>